<svg width="1216" height="593" viewBox="0 0 1216 593" fill="none" xmlns="http://www.w3.org/2000/svg">
<g clip-path="url(#clip0_69_918)">
<g clip-path="url(#clip1_69_918)">
<mask id="path-1-inside-1_69_918" fill="white">
<path d="M0 95.1786C0 77.9591 13.9591 64 31.1786 64H1073.82C1091.04 64 1105 77.9591 1105 95.1786V593H0V95.1786Z"/>
</mask>
<path d="M0 95.1786C0 77.9591 13.9591 64 31.1786 64H1073.82C1091.04 64 1105 77.9591 1105 95.1786V593H0V95.1786Z" fill="url(#paint0_linear_69_918)"/>
<rect x="625.5" y="183.5" width="541" height="375" stroke="white"/>
<g clip-path="url(#clip2_69_918)">
<path d="M829.774 327L802.505 363.678L823.224 391.489L811.595 400.356L778.711 356.423L735 415H895.408L829.774 327Z" fill="#F67ACB"/>
</g>
<path d="M142.378 116.245C138.57 116.245 136.006 113.81 136.006 110.779H139.14C139.166 112.178 140.487 113.448 142.456 113.448C144.269 113.448 145.435 112.334 145.435 110.935C145.435 109.691 144.373 108.966 142.87 108.552L140.642 107.93C136.809 106.946 136.135 104.64 136.135 103.086C136.135 99.9253 138.907 97.7752 142.197 97.7752C145.461 97.7752 148.025 99.7958 148.025 103.138H144.891C144.891 101.661 143.777 100.599 142.119 100.599C140.591 100.599 139.321 101.635 139.321 103.034C139.321 103.526 139.477 104.562 141.523 105.106L143.647 105.728C146.445 106.505 148.595 107.956 148.595 110.805C148.595 114.069 145.875 116.245 142.378 116.245Z" fill="white"/>
<path d="M154.589 103.837H157.153V106.22H154.589V115.935H151.584V106.22H149.408V103.837H151.584V99.3813H154.589V103.837Z" fill="white"/>
<path d="M165.15 103.526C165.875 103.526 166.653 103.682 167.119 103.941L166.523 106.79C165.824 106.427 165.202 106.35 164.762 106.35C162.793 106.35 161.705 108.319 161.705 111.712V115.935H158.674V103.837H161.679V106.427C162.326 104.407 163.648 103.526 165.15 103.526Z" fill="white"/>
<path d="M176.79 110.313V103.837H179.795V115.935H176.79V114.044C176.168 115.572 174.251 116.245 173.034 116.245C169.925 116.245 168.189 114.147 168.189 110.624V103.837H171.194V110.495C171.194 112.437 172.36 113.448 173.707 113.448C175.08 113.448 176.79 112.671 176.79 110.313Z" fill="white"/>
<path d="M188.397 116.245C184.9 116.245 181.817 113.707 181.817 109.873C181.817 106.039 184.9 103.526 188.397 103.526C190.495 103.526 192.205 104.459 193.319 105.858L191.195 107.541C190.573 106.79 189.537 106.324 188.449 106.324C186.351 106.324 184.848 107.826 184.848 109.873C184.848 111.893 186.351 113.448 188.449 113.448C189.537 113.448 190.573 112.981 191.195 112.23L193.319 113.914C192.205 115.313 190.495 116.245 188.397 116.245Z" fill="white"/>
<path d="M199.217 103.837H201.781V106.22H199.217V115.935H196.212V106.22H194.036V103.837H196.212V99.3813H199.217V103.837Z" fill="white"/>
<path d="M210.063 103.526C213.457 103.526 216.203 106.194 216.203 109.873C216.203 113.551 213.457 116.245 210.063 116.245C208.043 116.245 206.126 115.209 205.245 113.551V115.935H203.587V97.2571H205.245V106.194C206.152 104.536 208.017 103.526 210.063 103.526ZM209.934 114.665C212.498 114.665 214.571 112.541 214.571 109.847C214.571 107.179 212.498 105.106 209.934 105.106C207.525 105.106 205.245 106.997 205.245 109.925C205.245 112.722 207.421 114.665 209.934 114.665Z" fill="white"/>
<path d="M224.239 116.245C220.794 116.245 217.919 113.707 217.919 109.873C217.919 106.039 220.794 103.526 224.239 103.526C227.685 103.526 230.586 106.039 230.586 109.873C230.586 113.707 227.685 116.245 224.239 116.245ZM224.239 114.665C226.778 114.665 228.928 112.722 228.928 109.873C228.928 107.023 226.778 105.106 224.239 105.106C221.675 105.106 219.577 107.023 219.577 109.873C219.577 112.722 221.675 114.665 224.239 114.665Z" fill="white"/>
<path d="M238.59 116.245C235.145 116.245 232.269 113.707 232.269 109.873C232.269 106.039 235.145 103.526 238.59 103.526C242.036 103.526 244.937 106.039 244.937 109.873C244.937 113.707 242.036 116.245 238.59 116.245ZM238.59 114.665C241.129 114.665 243.279 112.722 243.279 109.873C243.279 107.023 241.129 105.106 238.59 105.106C236.026 105.106 233.927 107.023 233.927 109.873C233.927 112.722 236.026 114.665 238.59 114.665Z" fill="white"/>
<path d="M250.869 116.245C248.771 116.245 246.672 115.028 246.465 112.722H247.993C248.175 113.733 249.107 114.769 250.869 114.769C252.604 114.769 253.667 113.862 253.667 112.645C253.667 111.66 252.993 111.013 251.75 110.702L250.014 110.287C248.304 109.873 246.931 108.992 246.931 106.971C246.931 105.003 248.615 103.526 250.921 103.526C252.941 103.526 254.806 104.64 254.884 106.816H253.278C253.2 105.728 252.138 105.003 250.947 105.003C249.548 105.003 248.589 105.858 248.589 106.997C248.589 108.137 249.574 108.629 250.454 108.837L252.242 109.277C254.599 109.847 255.324 111.272 255.324 112.671C255.324 114.821 253.382 116.245 250.869 116.245Z" fill="white"/>
<path d="M260.239 103.837H263.011V105.262H260.239V115.935H258.607V105.262H256.405V103.837H258.607V99.3036H260.239V103.837Z" fill="white"/>
<path d="M125.016 98.5236H113.908C113.454 98.5236 113.357 98.5563 113.098 98.8175L104.291 107.045C104.032 107.306 104 107.404 104 107.861V112.694C104 115.436 105.36 116.807 108.08 116.807H119.188C119.641 116.807 119.738 116.775 119.997 116.514L128.805 108.286C129.063 108.025 129.095 107.927 129.095 107.47V102.638C129.095 99.895 127.736 98.5236 125.016 98.5236Z" fill="#F67ACB"/>
<rect x="1053.32" y="89.4625" width="101.846" height="34.7464" stroke="#F67ACB" stroke-width="1.03929"/>
<path d="M1087.77 105.061H1086.49C1086.42 104.692 1086.28 104.368 1086.09 104.089C1085.91 103.81 1085.68 103.576 1085.41 103.387C1085.15 103.194 1084.85 103.049 1084.53 102.953C1084.2 102.856 1083.87 102.808 1083.52 102.808C1082.87 102.808 1082.29 102.97 1081.77 103.294C1081.26 103.617 1080.85 104.094 1080.54 104.725C1080.24 105.355 1080.08 106.129 1080.08 107.045C1080.08 107.961 1080.24 108.734 1080.54 109.365C1080.85 109.995 1081.26 110.472 1081.77 110.796C1082.29 111.12 1082.87 111.282 1083.52 111.282C1083.87 111.282 1084.2 111.233 1084.53 111.137C1084.85 111.041 1085.15 110.898 1085.41 110.708C1085.68 110.515 1085.91 110.279 1086.09 110C1086.28 109.718 1086.42 109.394 1086.49 109.029H1087.77C1087.68 109.57 1087.5 110.054 1087.25 110.481C1086.99 110.908 1086.67 111.271 1086.29 111.571C1085.92 111.867 1085.49 112.093 1085.02 112.248C1084.55 112.403 1084.05 112.48 1083.52 112.48C1082.61 112.48 1081.81 112.26 1081.11 111.819C1080.4 111.378 1079.85 110.751 1079.45 109.938C1079.05 109.125 1078.84 108.161 1078.84 107.045C1078.84 105.929 1079.05 104.964 1079.45 104.151C1079.85 103.338 1080.4 102.711 1081.11 102.271C1081.81 101.83 1082.61 101.609 1083.52 101.609C1084.05 101.609 1084.55 101.687 1085.02 101.842C1085.49 101.997 1085.92 102.224 1086.29 102.524C1086.67 102.82 1086.99 103.182 1087.25 103.609C1087.5 104.032 1087.68 104.516 1087.77 105.061ZM1092.47 112.501C1091.75 112.501 1091.12 112.331 1090.58 111.99C1090.04 111.649 1089.62 111.171 1089.32 110.558C1089.02 109.945 1088.87 109.229 1088.87 108.409C1088.87 107.582 1089.02 106.861 1089.32 106.244C1089.62 105.627 1090.04 105.149 1090.58 104.808C1091.12 104.467 1091.75 104.296 1092.47 104.296C1093.18 104.296 1093.81 104.467 1094.35 104.808C1094.89 105.149 1095.31 105.627 1095.61 106.244C1095.91 106.861 1096.06 107.582 1096.06 108.409C1096.06 109.229 1095.91 109.945 1095.61 110.558C1095.31 111.171 1094.89 111.649 1094.35 111.99C1093.81 112.331 1093.18 112.501 1092.47 112.501ZM1092.47 111.406C1093.01 111.406 1093.46 111.266 1093.81 110.987C1094.16 110.708 1094.42 110.341 1094.59 109.887C1094.76 109.432 1094.84 108.939 1094.84 108.409C1094.84 107.878 1094.76 107.384 1094.59 106.926C1094.42 106.468 1094.16 106.098 1093.81 105.815C1093.46 105.533 1093.01 105.391 1092.47 105.391C1091.92 105.391 1091.47 105.533 1091.12 105.815C1090.77 106.098 1090.51 106.468 1090.34 106.926C1090.17 107.384 1090.09 107.878 1090.09 108.409C1090.09 108.939 1090.17 109.432 1090.34 109.887C1090.51 110.341 1090.77 110.708 1091.12 110.987C1091.47 111.266 1091.92 111.406 1092.47 111.406ZM1098.71 107.561V112.336H1097.49V104.399H1098.66V105.639H1098.77C1098.95 105.236 1099.24 104.913 1099.62 104.668C1099.99 104.42 1100.48 104.296 1101.08 104.296C1101.62 104.296 1102.09 104.406 1102.49 104.627C1102.9 104.844 1103.21 105.174 1103.43 105.619C1103.66 106.06 1103.77 106.618 1103.77 107.293V112.336H1102.55V107.375C1102.55 106.752 1102.39 106.266 1102.06 105.918C1101.74 105.567 1101.3 105.391 1100.73 105.391C1100.34 105.391 1099.99 105.476 1099.69 105.645C1099.38 105.813 1099.15 106.06 1098.97 106.383C1098.79 106.707 1098.71 107.1 1098.71 107.561ZM1109.01 104.399V105.433H1104.9V104.399H1109.01ZM1106.1 102.498H1107.32V110.062C1107.32 110.407 1107.37 110.665 1107.47 110.837C1107.57 111.006 1107.7 111.12 1107.86 111.178C1108.02 111.233 1108.19 111.261 1108.37 111.261C1108.51 111.261 1108.62 111.254 1108.7 111.24C1108.79 111.223 1108.86 111.209 1108.91 111.199L1109.16 112.294C1109.07 112.325 1108.96 112.356 1108.81 112.387C1108.66 112.422 1108.48 112.439 1108.25 112.439C1107.9 112.439 1107.57 112.365 1107.24 112.217C1106.91 112.069 1106.64 111.843 1106.42 111.54C1106.21 111.237 1106.1 110.855 1106.1 110.393V102.498ZM1112.75 112.522C1112.24 112.522 1111.79 112.427 1111.38 112.238C1110.97 112.045 1110.64 111.767 1110.4 111.406C1110.16 111.041 1110.04 110.6 1110.04 110.083C1110.04 109.628 1110.13 109.26 1110.31 108.977C1110.49 108.691 1110.73 108.467 1111.03 108.306C1111.33 108.144 1111.66 108.023 1112.02 107.944C1112.38 107.861 1112.75 107.796 1113.12 107.747C1113.6 107.685 1113.99 107.639 1114.29 107.608C1114.59 107.574 1114.81 107.517 1114.95 107.437C1115.09 107.358 1115.16 107.22 1115.16 107.024V106.983C1115.16 106.473 1115.02 106.077 1114.75 105.794C1114.47 105.512 1114.05 105.371 1113.49 105.371C1112.91 105.371 1112.45 105.498 1112.12 105.753C1111.79 106.008 1111.56 106.28 1111.42 106.569L1110.27 106.156C1110.47 105.674 1110.75 105.298 1111.09 105.03C1111.44 104.758 1111.82 104.568 1112.23 104.461C1112.64 104.351 1113.05 104.296 1113.45 104.296C1113.7 104.296 1114 104.327 1114.33 104.389C1114.66 104.448 1114.98 104.57 1115.29 104.756C1115.61 104.942 1115.87 105.223 1116.07 105.598C1116.28 105.974 1116.38 106.476 1116.38 107.107V112.336H1115.16V111.261H1115.1C1115.02 111.433 1114.88 111.618 1114.69 111.814C1114.5 112.01 1114.24 112.177 1113.92 112.315C1113.6 112.453 1113.21 112.522 1112.75 112.522ZM1112.93 111.426C1113.41 111.426 1113.82 111.332 1114.15 111.142C1114.49 110.953 1114.74 110.708 1114.91 110.408C1115.08 110.109 1115.16 109.794 1115.16 109.463V108.347C1115.11 108.409 1115 108.466 1114.82 108.517C1114.65 108.566 1114.45 108.609 1114.22 108.647C1114 108.681 1113.78 108.712 1113.57 108.74C1113.36 108.764 1113.19 108.784 1113.06 108.802C1112.74 108.843 1112.44 108.91 1112.17 109.003C1111.9 109.093 1111.67 109.229 1111.51 109.411C1111.34 109.59 1111.26 109.835 1111.26 110.145C1111.26 110.569 1111.41 110.889 1111.73 111.106C1112.05 111.32 1112.45 111.426 1112.93 111.426ZM1121.62 104.399V105.433H1117.51V104.399H1121.62ZM1118.71 102.498H1119.93V110.062C1119.93 110.407 1119.98 110.665 1120.08 110.837C1120.18 111.006 1120.31 111.12 1120.47 111.178C1120.63 111.233 1120.8 111.261 1120.98 111.261C1121.12 111.261 1121.23 111.254 1121.31 111.24C1121.4 111.223 1121.47 111.209 1121.52 111.199L1121.77 112.294C1121.69 112.325 1121.57 112.356 1121.42 112.387C1121.27 112.422 1121.09 112.439 1120.86 112.439C1120.51 112.439 1120.18 112.365 1119.85 112.217C1119.52 112.069 1119.25 111.843 1119.03 111.54C1118.82 111.237 1118.71 110.855 1118.71 110.393V102.498ZM1126.16 112.501C1125.44 112.501 1124.82 112.331 1124.27 111.99C1123.74 111.649 1123.32 111.171 1123.01 110.558C1122.71 109.945 1122.56 109.229 1122.56 108.409C1122.56 107.582 1122.71 106.861 1123.01 106.244C1123.32 105.627 1123.74 105.149 1124.27 104.808C1124.82 104.467 1125.44 104.296 1126.16 104.296C1126.88 104.296 1127.5 104.467 1128.04 104.808C1128.58 105.149 1129 105.627 1129.3 106.244C1129.61 106.861 1129.76 107.582 1129.76 108.409C1129.76 109.229 1129.61 109.945 1129.3 110.558C1129 111.171 1128.58 111.649 1128.04 111.99C1127.5 112.331 1126.88 112.501 1126.16 112.501ZM1126.16 111.406C1126.71 111.406 1127.15 111.266 1127.5 110.987C1127.86 110.708 1128.12 110.341 1128.28 109.887C1128.45 109.432 1128.54 108.939 1128.54 108.409C1128.54 107.878 1128.45 107.384 1128.28 106.926C1128.12 106.468 1127.86 106.098 1127.5 105.815C1127.15 105.533 1126.71 105.391 1126.16 105.391C1125.62 105.391 1125.17 105.533 1124.82 105.815C1124.47 106.098 1124.21 106.468 1124.04 106.926C1123.87 107.384 1123.78 107.878 1123.78 108.409C1123.78 108.939 1123.87 109.432 1124.04 109.887C1124.21 110.341 1124.47 110.708 1124.82 110.987C1125.17 111.266 1125.62 111.406 1126.16 111.406Z" fill="#F67ACB"/>
<rect x="379.339" y="105.571" width="49.8857" height="2.07857" fill="white"/>
<rect x="470.796" y="105.571" width="49.8857" height="2.07857" fill="white"/>
<rect x="562.253" y="105.571" width="49.8857" height="2.07857" fill="white"/>
<path d="M624.611 104.532L628.768 108.689L632.925 104.532" stroke="#F67ACB" stroke-width="1.55893" stroke-linecap="round" stroke-linejoin="round"/>
<rect x="682.811" y="105.571" width="49.8857" height="2.07857" fill="white"/>
<path d="M745.168 104.532L749.325 108.689L753.482 104.532" stroke="#F67ACB" stroke-width="1.55893" stroke-linecap="round" stroke-linejoin="round"/>
<rect x="803.368" y="105.571" width="49.8857" height="2.07857" fill="white"/>
<path d="M865.725 104.532L869.882 108.689L874.04 104.532" stroke="#F67ACB" stroke-width="1.55893" stroke-linecap="round" stroke-linejoin="round"/>
<rect x="923.925" y="105.571" width="49.8857" height="2.07857" fill="white"/>
<path d="M510.532 319.997C510.373 319.99 510.243 319.897 510.145 319.719C510.069 319.635 510.021 319.52 510.001 319.372C509.994 319.238 510.052 318.994 510.175 318.639C510.299 318.271 510.505 317.713 510.793 316.966C510.95 316.466 511.073 316.105 511.164 315.882C511.255 315.646 511.303 315.475 511.308 315.368C511.315 315.222 511.333 315.102 511.364 315.01C511.409 314.906 511.434 314.807 511.438 314.714C511.518 314.717 511.602 314.648 511.688 314.505C511.775 314.362 511.851 314.165 511.916 313.915C511.98 313.691 512.035 313.513 512.081 313.382C512.141 313.238 512.172 313.139 512.175 313.086C512.246 312.982 512.32 312.819 512.398 312.596C512.488 312.373 512.62 312.106 512.795 311.793C512.92 311.399 513.059 310.991 513.212 310.571C513.366 310.138 513.518 309.738 513.668 309.371C513.833 308.992 513.967 308.698 514.07 308.489C514.235 308.083 514.362 307.802 514.449 307.646C514.537 307.476 514.542 307.363 514.465 307.306C514.375 307.235 514.36 307.121 514.421 306.963C514.482 306.806 514.636 306.633 514.885 306.444C515.04 306.278 515.172 306.164 515.282 306.102C515.392 306.027 515.527 305.994 515.687 306.001C515.86 306.009 516.106 306.034 516.424 306.075C516.663 306.1 516.916 306.118 517.182 306.131C517.462 306.144 517.635 306.152 517.702 306.155C517.819 306.214 517.963 306.28 518.133 306.355C518.304 306.416 518.454 306.477 518.585 306.536C518.729 306.596 518.8 306.646 518.798 306.686C518.795 306.766 518.819 306.821 518.871 306.85C518.937 306.866 519.003 306.882 519.069 306.899C519.162 306.903 519.285 306.982 519.438 307.136C519.592 307.277 519.75 307.458 519.914 307.679C520.077 307.887 520.201 308.106 520.283 308.337C520.379 308.568 520.45 308.785 520.494 308.987C520.551 309.19 520.538 309.476 520.454 309.846C520.431 310.045 520.388 310.244 520.326 310.441C520.277 310.639 520.224 310.77 520.168 310.834C520.085 310.884 520.009 310.947 519.939 311.024C519.868 311.1 519.832 311.172 519.828 311.239C519.826 311.292 519.774 311.396 519.674 311.552C519.574 311.694 519.446 311.862 519.29 312.055C519.134 312.248 518.965 312.44 518.783 312.632C518.6 312.824 518.426 312.989 518.259 313.128C518.076 313.333 517.86 313.523 517.612 313.699C517.377 313.875 517.163 314.018 516.971 314.129C516.618 314.273 516.224 314.415 515.79 314.555C515.37 314.696 514.964 314.81 514.573 314.899C514.195 314.988 513.88 315.02 513.628 314.995C513.239 315.031 512.983 315.072 512.861 315.12C512.753 315.155 512.667 315.264 512.605 315.448C512.531 315.618 512.456 315.795 512.381 315.979C512.319 316.149 512.287 316.268 512.284 316.334C512.255 316.387 512.181 316.55 512.061 316.825C511.955 317.087 511.834 317.395 511.698 317.749C511.575 318.103 511.452 318.452 511.329 318.793C511.206 319.134 511.113 319.417 511.049 319.641C510.987 319.825 510.916 319.928 510.835 319.951C510.753 319.987 510.652 320.003 510.532 319.997ZM513.297 313.919C513.348 313.975 513.554 313.991 513.916 313.968C514.277 313.944 514.668 313.862 515.088 313.722C515.359 313.641 515.631 313.54 515.903 313.419C516.189 313.299 516.462 313.165 516.723 313.017C516.86 312.93 517.068 312.772 517.345 312.545C517.623 312.318 517.902 312.044 518.184 311.723C518.227 311.658 518.3 311.535 518.402 311.353C518.517 311.158 518.619 310.976 518.707 310.806C518.836 310.625 518.968 310.358 519.105 310.004C519.242 309.637 519.283 309.331 519.227 309.089C519.177 308.739 519.019 308.412 518.753 308.106C518.487 307.786 518.164 307.564 517.782 307.44C517.492 307.373 517.247 307.335 517.047 307.326C516.86 307.317 516.653 307.327 516.425 307.357C516.209 307.414 516.044 307.499 515.932 307.614C515.833 307.73 515.695 307.977 515.517 308.356C515.416 308.538 515.269 308.818 515.078 309.196C514.888 309.561 514.725 309.907 514.589 310.235C514.309 311.103 514.035 311.817 513.769 312.379C513.517 312.928 513.36 313.274 513.3 313.418C513.307 313.566 513.295 313.672 513.266 313.737C513.236 313.789 513.247 313.85 513.297 313.919ZM520.056 318.777C519.941 318.679 519.859 318.581 519.81 318.486C519.774 318.391 519.782 318.211 519.835 317.946C519.892 317.575 519.96 317.251 520.04 316.975C520.12 316.685 520.216 316.356 520.326 315.987C520.36 315.828 520.446 315.559 520.584 315.178C520.735 314.798 520.914 314.386 521.122 313.942C521.329 313.497 521.536 313.08 521.741 312.689C521.946 312.285 522.12 311.986 522.263 311.792C522.373 311.717 522.501 311.69 522.647 311.71C522.806 311.731 522.937 311.797 523.038 311.908C523.179 312.035 523.189 312.249 523.068 312.55C522.962 312.839 522.74 313.296 522.404 313.921C522.228 314.273 522.095 314.541 522.007 314.724C521.919 314.893 521.88 314.998 521.892 315.039C521.904 315.066 521.965 315.049 522.074 314.987C522.161 314.844 522.315 314.684 522.537 314.508C522.759 314.318 522.995 314.135 523.243 313.96C523.492 313.785 523.726 313.629 523.946 313.492C524.166 313.355 524.316 313.269 524.398 313.233C524.508 313.171 524.63 313.123 524.765 313.09C524.914 313.043 525.016 313.008 525.07 312.984C525.384 312.851 525.699 312.813 526.017 312.867C526.335 312.922 526.529 313.051 526.6 313.255C526.608 313.362 526.644 313.444 526.708 313.5C526.786 313.557 526.824 313.586 526.824 313.586C526.878 313.588 526.903 313.609 526.902 313.649C526.913 313.69 526.919 313.71 526.919 313.71C526.914 313.803 526.838 313.86 526.691 313.88C526.557 313.887 526.383 313.892 526.169 313.896C525.996 313.901 525.841 313.927 525.705 313.974C525.57 314.021 525.407 314.08 525.216 314.152C524.697 314.421 524.197 314.685 523.718 314.943C523.252 315.202 522.796 315.554 522.348 316.001C522.25 316.103 522.15 316.225 522.05 316.367C521.95 316.51 521.843 316.665 521.728 316.833C521.659 316.896 521.585 317.04 521.508 317.263C521.431 317.486 521.361 317.703 521.298 317.914C521.249 318.112 521.223 318.231 521.221 318.271C521.221 318.271 521.198 318.337 521.152 318.468C521.106 318.586 521.034 318.703 520.936 318.818C520.766 319.024 520.628 319.124 520.521 319.119C520.415 319.114 520.26 319 520.056 318.777ZM528.236 319.558C528.063 319.55 527.925 319.51 527.821 319.438C527.731 319.367 527.616 319.268 527.475 319.142C527.234 318.864 527.066 318.602 526.97 318.358C526.876 318.1 526.853 317.858 526.904 317.634C526.949 317.529 526.967 317.43 526.958 317.336C526.963 317.229 526.965 317.176 526.965 317.176C526.902 317.106 526.884 317.065 526.911 317.053C526.939 317.028 526.967 316.989 526.996 316.937C527.076 316.941 527.106 316.869 527.086 316.721C527.065 316.613 527.129 316.383 527.279 316.029C527.429 315.676 527.611 315.344 527.825 315.034C527.912 314.904 528.039 314.737 528.209 314.531C528.38 314.312 528.563 314.1 528.759 313.896C528.97 313.679 529.158 313.507 529.324 313.381C529.67 313.117 529.972 312.924 530.231 312.803C530.491 312.681 530.768 312.594 531.064 312.541C531.361 312.488 531.562 312.464 531.668 312.469C531.788 312.475 531.943 312.589 532.133 312.811C532.433 312.958 532.646 313.128 532.77 313.321C532.908 313.514 532.989 313.792 533.012 314.153C533.033 314.555 532.979 315.013 532.848 315.527C532.731 316.029 532.389 316.647 531.821 317.381C531.466 317.845 531.143 318.191 530.852 318.418C530.562 318.631 530.218 318.842 529.821 319.051C529.533 319.224 529.273 319.352 529.043 319.435C528.813 319.504 528.544 319.545 528.236 319.558ZM530.252 317.529C530.589 317.184 530.858 316.856 531.059 316.545C531.273 316.235 531.479 315.837 531.675 315.352C531.735 315.208 531.777 315.03 531.8 314.818C531.824 314.592 531.826 314.385 531.809 314.197C531.804 313.997 531.763 313.882 531.684 313.851C531.529 313.751 531.337 313.715 531.109 313.744C530.881 313.761 530.629 313.876 530.352 314.09C529.923 314.417 529.543 314.833 529.213 315.338C528.883 315.83 528.556 316.396 528.233 317.035C528.011 317.505 527.947 317.889 528.039 318.187C528.146 318.472 528.388 318.584 528.765 318.521C529.155 318.446 529.651 318.115 530.252 317.529ZM539.011 320.158C538.957 320.155 538.878 320.145 538.772 320.127C538.68 320.096 538.603 320.032 538.54 319.936C538.352 319.687 538.235 319.481 538.189 319.319C538.143 319.156 538.147 318.923 538.201 318.619C538.237 318.42 538.258 318.247 538.265 318.101C538.286 317.942 538.305 317.809 538.324 317.703C538.273 317.648 538.171 317.683 538.019 317.809C537.88 317.923 537.686 318.067 537.438 318.243C536.961 318.741 536.536 319.122 536.163 319.385C535.805 319.635 535.483 319.8 535.199 319.881C534.916 319.948 534.648 319.962 534.397 319.924C534.171 319.886 533.996 319.785 533.87 319.619C533.745 319.44 533.669 319.216 533.641 318.947C533.627 318.68 533.64 318.394 533.681 318.088C533.755 317.651 533.867 317.236 534.019 316.843C534.184 316.45 534.438 316.015 534.78 315.537C534.939 315.277 535.144 315.026 535.396 314.784C535.661 314.53 535.945 314.309 536.247 314.123C536.564 313.924 536.864 313.785 537.148 313.704C537.46 313.599 537.776 313.547 538.096 313.548C538.417 313.536 538.702 313.576 538.952 313.668C539.108 313.755 539.232 313.801 539.326 313.806C539.432 313.81 539.515 313.748 539.575 313.617C539.646 313.513 539.72 313.357 539.797 313.147C539.874 312.923 539.963 312.734 540.063 312.578L540.563 311.3C540.726 310.947 540.904 310.575 541.095 310.184C541.287 309.792 541.516 309.316 541.782 308.754C542.029 308.338 542.226 308.101 542.376 308.041C542.526 307.968 542.69 308.029 542.868 308.224C543.007 308.404 543.051 308.606 543 308.831C542.95 309.042 542.814 309.383 542.592 309.853C542.492 309.995 542.406 310.131 542.333 310.261C542.261 310.378 542.159 310.567 542.027 310.828C541.834 311.232 541.657 311.598 541.495 311.924C541.334 312.237 541.164 312.596 540.985 313.002C540.921 313.212 540.837 313.455 540.731 313.731C540.638 314.007 540.559 314.257 540.495 314.48C540.446 314.692 540.39 314.889 540.328 315.073C540.28 315.245 540.229 315.329 540.176 315.327C540.064 315.442 539.954 315.65 539.847 315.952C539.74 316.241 539.646 316.543 539.564 316.86C539.496 317.177 539.437 317.441 539.387 317.653C539.353 317.811 539.324 318.017 539.299 318.269C539.273 318.522 539.255 318.768 539.244 319.007C539.234 319.234 539.226 319.394 539.222 319.487C539.208 319.78 539.193 319.966 539.176 320.045C539.159 320.125 539.104 320.162 539.011 320.158ZM534.814 318.702C535.093 318.715 535.392 318.608 535.709 318.383C536.04 318.158 536.372 317.906 536.705 317.628C536.914 317.451 537.138 317.214 537.379 316.919C537.633 316.623 537.874 316.328 538.101 316.031C538.342 315.735 538.534 315.477 538.678 315.257C538.822 315.023 538.895 314.88 538.898 314.827C538.901 314.76 538.843 314.711 538.724 314.679C538.606 314.646 538.467 314.627 538.307 314.619C538.161 314.599 538.041 314.6 537.946 314.622C537.65 314.675 537.351 314.795 537.049 314.981C536.76 315.168 536.439 315.453 536.088 315.838C535.722 316.248 535.415 316.674 535.168 317.116C534.933 317.559 534.783 317.933 534.715 318.237C534.648 318.54 534.68 318.695 534.814 318.702ZM546.427 320.662C546.331 320.711 546.206 320.685 546.05 320.585C545.908 320.485 545.768 320.338 545.63 320.145C545.544 319.98 545.486 319.804 545.454 319.616C545.436 319.428 545.435 319.168 545.451 318.835C545.476 318.569 545.471 318.395 545.435 318.314C545.412 318.232 545.338 318.242 545.213 318.343C545.089 318.431 544.873 318.615 544.567 318.894C544.218 319.212 543.887 319.456 543.572 319.629C543.27 319.802 543.026 319.877 542.84 319.855C542.747 319.851 542.643 319.799 542.527 319.7C542.426 319.589 542.332 319.458 542.245 319.307C542.159 319.143 542.087 318.979 542.028 318.816C541.961 318.519 541.965 318.146 542.04 317.696C542.128 317.232 542.257 316.751 542.427 316.252C542.597 315.753 542.786 315.281 542.993 314.837C543.214 314.393 543.431 314.036 543.644 313.766C543.87 313.496 544.063 313.365 544.222 313.372C544.329 313.377 544.42 313.435 544.495 313.545C544.583 313.656 544.669 313.827 544.751 314.057C544.8 314.153 544.816 314.234 544.8 314.3C544.797 314.366 544.74 314.444 544.629 314.532C544.502 314.686 544.351 314.92 544.176 315.232C544.015 315.545 543.852 315.884 543.688 316.25C543.538 316.617 543.401 316.971 543.279 317.313C543.156 317.654 543.07 317.937 543.019 318.161C542.969 318.373 542.971 318.48 543.024 318.482C543.211 318.491 543.434 318.428 543.694 318.293C543.968 318.145 544.23 317.964 544.48 317.749C544.772 317.482 545.033 317.187 545.262 316.864C545.504 316.542 545.746 316.199 545.99 315.837C546.176 315.578 546.369 315.294 546.57 314.983C546.785 314.672 546.922 314.452 546.981 314.321C547.184 313.983 547.335 313.757 547.433 313.641C547.533 313.512 547.65 313.431 547.785 313.397C547.852 313.4 547.912 313.403 547.965 313.406C548.032 313.409 548.065 313.41 548.065 313.41C548.144 313.427 548.235 313.492 548.336 313.603C548.44 313.661 548.498 313.717 548.509 313.771C548.52 313.812 548.524 313.865 548.521 313.932C548.462 314.063 548.366 314.258 548.234 314.519C548.115 314.767 548.027 314.95 547.968 315.068C547.688 315.629 547.409 316.183 547.13 316.731C546.865 317.265 546.666 317.817 546.533 318.385C546.497 318.57 546.48 318.789 546.482 319.043C546.497 319.284 546.529 319.459 546.578 319.568C546.614 319.65 546.656 319.745 546.705 319.854C546.767 319.95 546.836 320.034 546.913 320.104C547.029 320.19 547.045 320.277 546.961 320.367C546.89 320.457 546.793 320.532 546.67 320.593C546.548 320.641 546.467 320.664 546.427 320.662ZM552.025 320.441C551.849 320.513 551.647 320.537 551.421 320.514C551.196 320.49 550.893 320.402 550.513 320.251C550.486 320.25 550.427 320.22 550.337 320.163C550.259 320.106 550.176 320.035 550.086 319.951C550.01 319.854 549.949 319.751 549.9 319.642C549.701 319.326 549.636 318.869 549.704 318.271C549.771 317.674 549.991 316.963 550.363 316.14C550.466 315.944 550.617 315.698 550.818 315.4C551.032 315.103 551.238 314.832 551.436 314.588C551.648 314.331 551.795 314.184 551.877 314.148C551.877 314.148 551.952 314.125 552.101 314.078C552.25 314.032 552.44 313.954 552.672 313.844C552.74 313.821 552.814 313.798 552.895 313.775C552.99 313.752 553.084 313.737 553.178 313.728C553.272 313.719 553.352 313.722 553.418 313.739C553.683 313.764 553.952 313.877 554.223 314.077C554.508 314.263 554.738 314.481 554.913 314.729C555.089 314.964 555.14 315.167 555.065 315.337C555.064 315.364 555.022 315.415 554.938 315.491C554.868 315.555 554.785 315.624 554.688 315.7C554.605 315.763 554.535 315.826 554.479 315.89C554.409 315.967 554.314 315.996 554.195 315.977C554.089 315.959 553.991 315.901 553.902 315.804C553.828 315.693 553.787 315.558 553.781 315.397C553.759 315.29 553.664 315.185 553.495 315.084C553.34 314.983 553.262 314.933 553.262 314.933C553.156 314.928 552.998 315.021 552.789 315.211C552.594 315.389 552.397 315.607 552.198 315.865C551.947 316.093 551.727 316.37 551.539 316.695C551.351 317.006 551.197 317.306 551.076 317.594C550.97 317.87 550.894 318.066 550.849 318.184C550.789 318.315 550.774 318.501 550.803 318.743C550.832 318.985 550.872 319.133 550.922 319.189C550.974 319.218 551.107 319.231 551.321 319.228C551.548 319.225 551.816 319.21 552.124 319.185C552.433 319.146 552.735 319.1 553.031 319.047C553.327 318.994 553.57 318.931 553.761 318.86C554.021 318.712 554.245 318.629 554.433 318.611C554.621 318.593 554.76 318.6 554.852 318.631C554.996 318.691 555.08 318.768 555.102 318.862C555.124 318.957 555.086 319.062 554.987 319.177C554.889 319.28 554.724 319.385 554.492 319.495C554.274 319.591 554.075 319.702 553.896 319.828C553.731 319.94 553.646 320.03 553.643 320.096C553.59 320.094 553.529 320.111 553.461 320.148C553.406 320.172 553.359 320.176 553.32 320.161C553.293 320.16 553.186 320.175 552.997 320.206C552.809 320.238 552.614 320.275 552.412 320.319C552.223 320.364 552.094 320.405 552.025 320.441ZM558.162 321.107C558.017 321.073 557.867 320.993 557.713 320.866C557.572 320.726 557.446 320.573 557.334 320.408C557.235 320.229 557.169 320.073 557.135 319.938C557.136 319.911 557.118 319.877 557.08 319.835C557.055 319.794 557.043 319.773 557.043 319.773C556.991 319.731 556.966 319.556 556.967 319.249C556.982 318.93 557.018 318.578 557.076 318.193C557.134 317.809 557.195 317.505 557.259 317.281C557.335 317.071 557.448 316.789 557.598 316.436C557.749 316.069 557.877 315.741 557.984 315.452L558.577 314.319L557.788 314.062C557.696 314.031 557.619 313.974 557.556 313.891C557.506 313.808 557.483 313.741 557.485 313.687C557.49 313.581 557.556 313.457 557.683 313.316C557.81 313.162 557.9 313.086 557.954 313.088C558.02 313.105 558.139 313.117 558.312 313.125C558.499 313.134 558.679 313.135 558.853 313.13C559.026 313.125 559.134 313.116 559.174 313.105C559.229 313.081 559.284 313.05 559.339 313.013C559.394 312.962 559.438 312.89 559.469 312.798C559.542 312.655 559.608 312.525 559.667 312.407C559.727 312.276 559.807 312.133 559.907 311.978C560.009 311.809 560.089 311.666 560.147 311.548C560.22 311.432 560.327 311.27 560.47 311.063C560.541 310.973 560.62 310.863 560.706 310.733C560.792 310.604 560.897 310.495 561.021 310.408C561.146 310.307 561.268 310.266 561.387 310.285C561.521 310.291 561.683 310.385 561.875 310.568C561.975 310.706 562.03 310.808 562.041 310.876C562.051 310.943 561.992 311.067 561.863 311.248C561.746 311.469 561.609 311.69 561.452 311.909C561.308 312.13 561.171 312.35 561.041 312.571C560.814 312.854 560.767 313.019 560.898 313.065C561.029 313.111 561.403 313.102 562.02 313.037C562.41 312.988 562.689 313.021 562.857 313.136C563.026 313.237 563.118 313.402 563.134 313.629C563.159 313.951 563.117 314.142 563.007 314.204C562.898 314.266 562.59 314.285 562.084 314.261C561.762 314.3 561.487 314.32 561.26 314.323C561.034 314.313 560.867 314.305 560.761 314.3C560.587 314.305 560.473 314.307 560.42 314.304C560.367 314.302 560.286 314.311 560.178 314.333C560.071 314.355 559.988 314.398 559.932 314.462C559.89 314.513 559.839 314.591 559.781 314.695C559.725 314.746 559.639 314.882 559.522 315.103C559.405 315.325 559.26 315.565 559.088 315.824C558.876 316.375 558.69 316.927 558.531 317.48C558.372 318.02 558.241 318.548 558.137 319.063C558.068 319.394 558.064 319.627 558.124 319.764C558.185 319.886 558.355 319.968 558.634 320.007C558.779 320.028 559.013 320.038 559.333 320.04C559.667 320.029 559.929 320.001 560.118 319.956C560.267 319.896 560.423 319.837 560.586 319.778C560.75 319.705 560.9 319.632 561.037 319.558C561.16 319.497 561.283 319.436 561.406 319.375C561.529 319.301 561.591 319.264 561.591 319.264C561.663 319.16 561.738 319.13 561.816 319.174C561.894 319.218 561.956 319.321 562.002 319.483C561.994 319.643 561.953 319.808 561.878 319.978C561.804 320.148 561.548 320.343 561.111 320.563C560.494 320.908 559.931 321.109 559.421 321.165C558.925 321.209 558.505 321.189 558.162 321.107ZM568.455 320.744C568.402 320.741 568.336 320.725 568.257 320.694C568.192 320.651 568.16 320.63 568.16 320.63C568.162 320.576 568.145 320.509 568.109 320.427C568.086 320.346 568.076 320.279 568.078 320.226C567.988 320.168 567.937 320.112 567.926 320.058C567.916 319.991 567.941 319.885 568.001 319.741C568.087 319.612 568.203 319.404 568.35 319.117C568.498 318.817 568.653 318.497 568.815 318.157C568.978 317.805 569.135 317.458 569.284 317.118C569.433 316.778 569.56 316.49 569.664 316.255C569.769 316.006 569.83 315.855 569.845 315.803C569.848 315.749 569.871 315.684 569.915 315.606C569.958 315.528 570.008 315.463 570.064 315.412C570.175 315.324 570.288 315.323 570.404 315.408C570.521 315.48 570.615 315.605 570.687 315.782C570.773 315.946 570.811 316.128 570.802 316.328C570.798 316.421 570.72 316.657 570.569 317.038C570.418 317.404 570.218 317.842 569.967 318.351C569.73 318.861 569.466 319.376 569.175 319.896C568.957 320.273 568.819 320.514 568.761 320.618C568.703 320.708 568.601 320.75 568.455 320.744ZM571.743 313.308C571.583 313.301 571.413 313.233 571.232 313.104C571.065 312.963 570.919 312.796 570.795 312.603C570.684 312.398 570.634 312.195 570.643 311.996C570.646 311.929 570.69 311.838 570.776 311.721C570.861 311.605 570.947 311.489 571.032 311.373C571.118 311.257 571.161 311.185 571.162 311.159C571.269 311.164 571.348 311.174 571.401 311.19C571.468 311.193 571.546 311.223 571.637 311.281C571.768 311.621 571.935 311.902 572.138 312.125C572.355 312.349 572.46 312.534 572.453 312.68C572.439 312.973 572.404 313.158 572.347 313.236C572.291 313.3 572.089 313.324 571.743 313.308ZM572.35 321.165C572.313 321.109 572.276 321.041 572.239 320.959C572.216 320.878 572.206 320.811 572.209 320.758C572.21 320.731 572.205 320.697 572.193 320.657C572.195 320.617 572.17 320.596 572.116 320.593C572.078 320.551 572.112 320.399 572.217 320.137C572.337 319.863 572.485 319.549 572.662 319.197C572.851 318.845 573.041 318.507 573.229 318.182C573.432 317.844 573.598 317.579 573.727 317.384C573.795 317.347 573.838 317.296 573.854 317.23C573.884 317.151 573.886 317.111 573.86 317.11C573.86 317.11 573.896 317.052 573.968 316.935C574.054 316.806 574.118 316.722 574.16 316.684C574.275 316.502 574.363 316.319 574.425 316.135C574.488 315.938 574.509 315.772 574.489 315.638C574.438 315.569 574.379 315.546 574.312 315.57C574.244 315.593 574.21 315.605 574.21 315.605C574.156 315.616 574.075 315.639 573.966 315.674C573.872 315.696 573.783 315.732 573.701 315.781C573.385 315.98 573.174 316.071 573.068 316.052C572.962 316.021 572.851 315.842 572.732 315.516C572.686 315.367 572.671 315.26 572.687 315.194C572.704 315.128 572.76 315.057 572.857 314.981C572.968 314.893 573.071 314.838 573.165 314.816C573.26 314.78 573.335 314.743 573.391 314.706C573.541 314.619 573.664 314.558 573.759 314.523C573.868 314.488 573.949 314.465 574.003 314.454C574.354 314.364 574.648 314.357 574.885 314.435C575.121 314.513 575.293 314.694 575.4 314.979C575.576 315.214 575.657 315.478 575.644 315.771C575.631 316.051 575.522 316.373 575.318 316.737L575.105 317.028C575.032 317.158 575.016 317.224 575.056 317.226C575.109 317.228 575.171 317.184 575.242 317.094C575.284 317.043 575.368 316.967 575.493 316.866C575.618 316.765 575.7 316.715 575.74 316.717C575.74 316.717 575.753 316.711 575.781 316.699C575.821 316.687 575.844 316.635 575.848 316.542C575.89 316.504 575.932 316.466 575.974 316.427C576.029 316.39 576.056 316.371 576.056 316.371C576.11 316.374 576.212 316.318 576.364 316.205C576.53 316.08 576.724 315.935 576.945 315.772C577.096 315.672 577.232 315.625 577.352 315.631C577.663 315.552 577.904 315.663 578.077 315.965C578.263 316.267 578.346 316.651 578.324 317.117L577.854 318.177L578.614 317.331C578.699 317.228 578.784 317.139 578.867 317.062C578.964 316.987 579.047 316.924 579.116 316.874C579.147 316.782 579.19 316.73 579.244 316.719C579.297 316.709 579.324 316.703 579.324 316.703C579.324 316.703 579.338 316.704 579.364 316.705C579.392 316.693 579.406 316.667 579.408 316.627C579.477 316.577 579.552 316.534 579.634 316.497C579.717 316.448 579.772 316.397 579.801 316.345C580.032 316.262 580.239 316.258 580.423 316.334C580.607 316.396 580.759 316.569 580.879 316.855C580.965 317.02 581.012 317.162 581.019 317.282C581.027 317.403 581.025 317.583 581.014 317.823C580.978 318.021 580.944 318.18 580.912 318.298C580.894 318.404 580.875 318.517 580.856 318.636C580.837 318.756 580.81 318.921 580.773 319.133C580.715 319.237 580.676 319.349 580.658 319.468C580.652 319.588 580.647 319.701 580.642 319.808C580.634 319.981 580.635 320.101 580.645 320.168C580.656 320.222 580.708 320.251 580.801 320.255C580.99 320.224 581.247 320.143 581.573 320.011C581.914 319.867 582.167 319.725 582.334 319.586C582.542 319.409 582.72 319.323 582.866 319.33C583.027 319.324 583.123 319.402 583.156 319.564C583.18 319.618 583.128 319.736 582.999 319.917C582.884 320.099 582.749 320.272 582.595 320.439C582.453 320.606 582.35 320.688 582.283 320.685C582.243 320.683 582.195 320.721 582.138 320.798C582.081 320.862 582.019 320.913 581.95 320.949C581.853 321.038 581.755 321.121 581.659 321.196C581.575 321.272 581.48 321.308 581.373 321.303C581.32 321.301 581.252 321.317 581.171 321.354C581.103 321.377 581.022 321.387 580.929 321.383C580.794 321.416 580.589 321.387 580.313 321.294C580.05 321.202 579.885 321.007 579.819 320.71C579.773 320.561 579.737 320.326 579.712 320.005C579.687 319.67 579.709 319.337 579.778 319.007C579.842 318.769 579.886 318.551 579.909 318.352C579.931 318.153 579.964 318.014 580.008 317.936C580.01 317.896 580.014 317.803 580.021 317.656C580.028 317.497 580.012 317.416 579.972 317.414C579.919 317.411 579.788 317.505 579.579 317.696C579.383 317.874 579.146 318.103 578.866 318.384C578.599 318.665 578.332 318.96 578.064 319.267C577.796 319.575 577.576 319.852 577.405 320.098C577.278 320.239 577.163 320.414 577.06 320.622C576.957 320.831 576.885 320.948 576.844 320.973C576.746 321.075 576.632 321.083 576.502 320.997C576.386 320.911 576.279 320.78 576.18 320.602C576.144 320.52 576.12 320.452 576.11 320.398C576.099 320.331 576.103 320.244 576.122 320.138C576.154 320.02 576.209 319.849 576.286 319.625C576.376 319.403 576.497 319.088 576.65 318.681C576.817 318.235 576.963 317.835 577.086 317.48C577.223 317.113 577.292 316.929 577.292 316.929C577.294 316.876 577.192 316.925 576.985 317.075C576.778 317.212 576.536 317.388 576.259 317.602C576.133 317.743 575.923 317.953 575.629 318.233C575.336 318.514 575.014 318.832 574.664 319.19C574.314 319.547 573.976 319.925 573.65 320.324C573.239 320.852 572.95 321.172 572.785 321.285C572.633 321.398 572.488 321.358 572.35 321.165ZM584.162 321.733C584.114 321.624 584.051 321.541 583.974 321.484C583.897 321.414 583.86 321.352 583.862 321.298C583.865 321.245 583.861 321.192 583.85 321.138C583.853 321.071 583.829 321.01 583.778 320.954C583.715 320.871 583.73 320.692 583.823 320.416C583.917 320.126 584.066 319.78 584.272 319.375C584.478 318.958 584.719 318.522 584.993 318.067C585.105 317.966 585.218 317.831 585.332 317.663C585.447 317.495 585.532 317.385 585.588 317.334C585.59 317.281 585.613 317.235 585.654 317.197C585.697 317.146 585.745 317.121 585.798 317.124L585.803 317.004C585.807 316.937 585.872 316.827 585.999 316.673C586.14 316.519 586.308 316.353 586.503 316.175C586.698 315.984 586.9 315.807 587.108 315.643C587.316 315.466 587.489 315.34 587.626 315.266C587.914 315.093 588.206 314.993 588.501 314.967C588.809 314.941 589.066 315.02 589.271 315.203C589.309 315.244 589.372 315.314 589.461 315.412C589.55 315.509 589.652 315.621 589.766 315.746C589.894 315.859 590.022 315.978 590.15 316.104L590.858 316.798L590.452 317.78C590.255 318.305 590.186 318.769 590.248 319.172C590.322 319.576 590.44 319.929 590.599 320.23C590.659 320.379 590.786 320.525 590.979 320.668C591.186 320.811 591.382 320.9 591.567 320.935C591.673 320.954 591.771 320.998 591.862 321.069C591.952 321.14 591.993 321.249 591.987 321.395C591.98 321.528 591.949 321.634 591.892 321.711C591.835 321.789 591.739 321.838 591.605 321.858C591.163 321.891 590.755 321.765 590.381 321.481C590.02 321.197 589.694 320.742 589.403 320.114C589.354 320.032 589.287 319.882 589.204 319.664C589.134 319.434 589.095 319.286 589.084 319.218C589.028 319.282 588.922 319.404 588.767 319.584C588.612 319.75 588.493 319.872 588.41 319.948C587.42 320.863 586.571 321.471 585.862 321.772C585.168 322.06 584.602 322.047 584.162 321.733ZM584.934 320.647C584.929 320.741 585.069 320.747 585.353 320.667C585.651 320.574 585.973 320.402 586.318 320.151C586.789 319.786 587.262 319.381 587.736 318.936C588.224 318.491 588.617 318.075 588.915 317.689L589.388 316.99C589.269 316.678 589.132 316.464 588.977 316.35C588.836 316.224 588.712 316.158 588.606 316.153C588.433 316.145 588.166 316.293 587.805 316.596C587.457 316.9 587.077 317.31 586.666 317.825C586.255 318.34 585.862 318.909 585.486 319.532C585.34 319.792 585.208 320.046 585.09 320.294C584.986 320.53 584.934 320.647 584.934 320.647ZM594.991 326.78C594.733 326.875 594.451 326.895 594.147 326.841C593.855 326.801 593.566 326.701 593.28 326.541C593.007 326.381 592.762 326.19 592.546 325.966C592.457 325.869 592.364 325.717 592.266 325.513C592.182 325.322 592.117 325.139 592.072 324.963C592.04 324.788 592.051 324.688 592.106 324.664C592.161 324.627 592.235 324.617 592.327 324.635C592.42 324.652 592.505 324.676 592.584 324.707C592.675 324.751 592.72 324.8 592.717 324.853C592.794 324.923 592.93 325.03 593.123 325.172C593.316 325.328 593.465 325.421 593.571 325.453C593.846 325.559 594.051 325.609 594.184 325.602C594.318 325.595 594.44 325.553 594.55 325.479C594.772 325.302 594.949 325.083 595.081 324.822C595.214 324.562 595.357 324.201 595.512 323.741L595.584 323.484C595.713 322.996 595.858 322.476 596.017 321.923C596.176 321.369 596.31 320.935 596.418 320.62C596.499 320.317 596.528 320.111 596.506 320.003C596.498 319.896 596.437 319.913 596.324 320.055C596.27 320.066 596.195 320.089 596.1 320.125C596.019 320.161 595.923 320.203 595.814 320.251C595.651 320.324 595.487 320.396 595.324 320.469C595.161 320.528 595.025 320.569 594.917 320.59C594.811 320.585 594.711 320.587 594.617 320.596C594.524 320.592 594.477 320.59 594.477 320.59C594.367 320.652 594.175 320.636 593.899 320.543C593.637 320.437 593.403 320.293 593.198 320.11C593.085 319.945 593.004 319.821 592.955 319.738C592.906 319.643 592.877 319.548 592.868 319.454C592.86 319.347 592.86 319.187 592.87 318.974C592.867 318.76 592.981 318.458 593.213 318.069C593.458 317.666 593.749 317.293 594.085 316.948C594.35 316.706 594.689 316.462 595.101 316.214C595.512 315.966 595.922 315.765 596.33 315.61C596.751 315.456 597.094 315.392 597.36 315.418C597.492 315.437 597.618 315.463 597.737 315.496C597.856 315.514 597.986 315.581 598.128 315.694C598.31 315.796 598.439 315.902 598.514 316.012C598.589 316.122 598.686 316.334 598.805 316.646C598.875 316.863 598.925 317.079 598.955 317.294C598.985 317.496 598.996 317.69 598.988 317.876C598.978 318.076 598.943 318.254 598.883 318.412C598.822 318.569 598.743 318.692 598.645 318.781C598.619 318.78 598.585 318.785 598.545 318.797C598.518 318.795 598.491 318.801 598.464 318.813C598.383 318.836 598.315 318.846 598.262 318.843C598.222 318.842 598.173 318.886 598.116 318.977C598.059 319.054 598.014 319.159 597.981 319.291C597.964 319.37 597.94 319.449 597.91 319.528C597.893 319.607 597.87 319.68 597.84 319.745C597.81 319.81 597.781 319.869 597.752 319.921C597.736 319.96 597.728 319.993 597.727 320.02C597.725 320.06 597.717 320.093 597.702 320.119C597.688 320.145 597.666 320.177 597.638 320.216C597.595 320.281 597.551 320.365 597.506 320.47C597.475 320.562 597.457 320.661 597.452 320.768L597.362 320.984C597.316 321.115 597.27 321.233 597.225 321.338C597.194 321.443 597.177 321.509 597.176 321.536L597.078 321.932C597.047 322.024 597.009 322.109 596.966 322.187C596.936 322.252 596.904 322.358 596.871 322.503C596.838 322.635 596.795 322.853 596.74 323.158C596.421 324.291 596.115 325.137 595.822 325.698C595.528 326.271 595.251 326.632 594.991 326.78ZM593.949 319.464C594.289 319.613 594.648 319.643 595.026 319.554C595.403 319.465 595.841 319.245 596.338 318.894C596.654 318.682 596.92 318.434 597.133 318.15C597.36 317.854 597.528 317.548 597.636 317.233C597.712 317.036 597.738 316.897 597.715 316.816C597.693 316.721 597.609 316.664 597.463 316.644C597.239 316.58 596.951 316.607 596.599 316.724C596.247 316.828 595.886 316.985 595.516 317.194C595.445 317.284 595.361 317.367 595.264 317.443C595.167 317.519 595.077 317.581 594.995 317.631C594.926 317.668 594.892 317.686 594.892 317.686C594.878 317.712 594.856 317.744 594.828 317.783C594.812 317.822 594.778 317.854 594.723 317.878C594.584 317.992 594.443 318.166 594.298 318.399C594.154 318.633 594.044 318.855 593.967 319.065C593.904 319.275 593.898 319.408 593.949 319.464ZM601.727 323.329C601.141 323.302 600.672 323.06 600.319 322.603C599.967 322.133 599.814 321.565 599.858 320.9C599.907 320.421 600.024 319.913 600.209 319.374C600.408 318.823 600.659 318.301 600.962 317.808C601.266 317.301 601.594 316.862 601.944 316.492C602.295 316.121 602.654 315.864 603.021 315.721C603.158 315.66 603.3 315.614 603.448 315.58C603.61 315.548 603.771 315.535 603.931 315.543C604.077 315.55 604.229 315.583 604.386 315.644C604.544 315.691 604.675 315.744 604.779 315.802C605.002 315.906 605.169 316.027 605.283 316.166C605.397 316.305 605.494 316.516 605.574 316.8C605.602 317.055 605.614 317.236 605.609 317.342C605.604 317.449 605.563 317.607 605.487 317.817C605.305 318.289 605.079 318.693 604.81 319.027C604.541 319.362 604.188 319.639 603.75 319.859C603.641 319.921 603.512 319.968 603.363 320.001C603.229 320.022 603.088 320.029 602.942 320.022C602.675 320.009 602.418 319.951 602.169 319.846C601.934 319.728 601.748 319.566 601.611 319.359L601.479 319.193L601.411 319.35C601.261 319.703 601.139 320.031 601.045 320.334C600.964 320.637 600.918 320.916 600.906 321.169C600.899 321.328 600.905 321.482 600.925 321.63C600.958 321.778 601.006 321.907 601.067 322.017C601.117 322.099 601.201 322.163 601.319 322.209C601.451 322.242 601.59 322.261 601.736 322.268C601.83 322.273 601.923 322.277 602.016 322.281C602.123 322.273 602.224 322.251 602.319 322.215C602.55 322.146 602.733 322.068 602.871 321.981C603.022 321.894 603.173 321.801 603.324 321.701L603.406 321.665L603.386 321.664C603.55 321.592 603.693 321.518 603.817 321.444C603.954 321.37 604.022 321.333 604.022 321.333C604.075 321.336 604.13 321.305 604.187 321.241C604.296 321.192 604.428 321.219 604.583 321.319C604.752 321.42 604.833 321.544 604.826 321.691C604.81 321.757 604.745 321.861 604.632 322.002C604.519 322.13 604.393 322.251 604.255 322.365C604.129 322.479 604.026 322.541 603.946 322.551C603.932 322.564 603.884 322.588 603.802 322.624C603.721 322.647 603.666 322.671 603.639 322.697L603.659 322.698C603.531 322.852 603.408 322.926 603.288 322.921L603.128 322.913C603.07 323.004 602.892 323.103 602.594 323.209C602.296 323.302 602.007 323.342 601.727 323.329ZM602.83 318.975C603.07 318.987 603.28 318.93 603.459 318.804C603.652 318.667 603.819 318.514 603.961 318.347C604.244 318 604.413 317.661 604.468 317.33C604.538 316.986 604.509 316.744 604.382 316.605C604.304 316.561 604.231 316.538 604.165 316.535C604.112 316.519 603.998 316.534 603.822 316.579C603.701 316.6 603.53 316.692 603.309 316.855C603.088 317.019 602.866 317.202 602.643 317.405C602.433 317.609 602.272 317.782 602.158 317.923L601.879 318.331C601.988 318.296 602.088 318.28 602.182 318.285C602.289 318.276 602.348 318.286 602.36 318.313C602.355 318.433 602.37 318.547 602.405 318.655C602.454 318.751 602.51 318.827 602.574 318.883C602.652 318.94 602.737 318.971 602.83 318.975Z" fill="#F67ACB"/>
<path d="M559.555 346.825C561.277 348.842 562.937 350.773 564.589 352.707C564.92 353.091 565.153 353.363 565.491 353.911C565.747 354.317 566.271 355.187 565.791 355.363C565.38 355.465 565.072 355.483 564.434 354.87C562.794 353.279 561.395 351.459 559.997 349.661C558.763 348.071 557.846 346.842 556.834 345.372C556.362 344.686 556.541 344.199 557.231 343.914C557.851 343.659 558.481 343.385 559.14 343.254C561.51 342.768 563.884 342.345 566.265 341.898C566.56 341.84 566.787 341.778 567.149 341.76C567.589 341.743 567.908 341.706 568.018 342.127C568.128 342.526 567.625 342.794 567.344 342.876C565.014 343.622 560.181 345.078 559.942 345.216C561.272 345.926 562.488 346.612 563.743 347.23C572.499 351.496 581.464 355.1 591.11 356.519C598.744 357.642 606.355 357.833 613.959 356.833C614.408 356.777 614.869 356.759 615.314 356.751C615.915 356.731 616.235 356.829 616.275 357.144C616.27 357.744 615.867 357.864 615.555 357.987C614.936 358.243 614.252 358.366 613.588 358.489C604.702 360.038 595.815 359.478 586.935 357.731C577.82 355.938 569.423 352.164 561.296 347.659C560.876 347.405 559.782 346.875 559.555 346.825Z" fill="#F67ACB"/>
<rect x="104" y="208" width="343" height="2" fill="white"/>
<rect x="104" y="250" width="283" height="2" fill="white"/>
<rect x="104" y="292" width="190" height="2" fill="white"/>
<rect x="104.52" y="334.52" width="216.171" height="45.7286" stroke="#F67ACB" stroke-width="1.03929"/>
<path d="M127.927 361.384V352.28H129.15V361.384H127.927ZM128.9 357.331V356.233L132.804 356.221V357.318L128.9 357.331ZM128.9 353.377V352.28H133.016V353.377H128.9ZM138.166 361.384V359.389H137.967V357.081C137.967 356.624 137.846 356.279 137.605 356.046C137.372 355.813 137.027 355.697 136.57 355.697C136.312 355.697 136.046 355.701 135.772 355.709C135.498 355.718 135.236 355.726 134.986 355.734C134.737 355.743 134.521 355.755 134.338 355.772V354.724C134.521 354.708 134.712 354.695 134.911 354.687C135.119 354.67 135.331 354.662 135.547 354.662C135.764 354.654 135.971 354.649 136.171 354.649C136.853 354.649 137.41 354.733 137.842 354.899C138.274 355.057 138.595 355.319 138.802 355.684C139.01 356.05 139.114 356.545 139.114 357.169V361.384H138.166ZM135.984 361.559C135.485 361.559 135.053 361.475 134.687 361.309C134.329 361.135 134.051 360.885 133.851 360.561C133.66 360.237 133.564 359.846 133.564 359.389C133.564 358.915 133.668 358.52 133.876 358.204C134.092 357.888 134.404 357.651 134.812 357.493C135.219 357.327 135.71 357.243 136.283 357.243H138.092V358.141H136.233C135.751 358.141 135.381 358.258 135.123 358.491C134.866 358.723 134.737 359.023 134.737 359.389C134.737 359.754 134.866 360.049 135.123 360.274C135.381 360.498 135.751 360.611 136.233 360.611C136.516 360.611 136.786 360.561 137.044 360.461C137.302 360.353 137.514 360.178 137.68 359.937C137.855 359.688 137.95 359.347 137.967 358.915L138.291 359.389C138.25 359.862 138.133 360.262 137.942 360.586C137.759 360.902 137.501 361.143 137.169 361.309C136.844 361.475 136.449 361.559 135.984 361.559ZM140.513 361.384V360.049L144.143 355.697V355.897L143.943 355.597L144.105 355.672H140.464V354.724H145.203V356.059L141.574 360.411V360.237L141.798 360.548L141.623 360.436H145.402V361.384H140.513ZM149.423 361.608C148.841 361.608 148.338 361.509 147.914 361.309C147.49 361.11 147.145 360.848 146.879 360.523C146.613 360.191 146.413 359.821 146.28 359.413C146.156 359.006 146.093 358.59 146.093 358.166V357.942C146.093 357.509 146.156 357.09 146.28 356.682C146.413 356.275 146.613 355.909 146.879 355.585C147.145 355.252 147.482 354.99 147.889 354.799C148.305 354.599 148.791 354.5 149.348 354.5C150.072 354.5 150.666 354.658 151.132 354.974C151.606 355.281 151.955 355.68 152.179 356.171C152.412 356.661 152.528 357.185 152.528 357.742V358.279H146.617V357.381H151.655L151.381 357.867C151.381 357.393 151.306 356.986 151.157 356.645C151.007 356.296 150.782 356.025 150.483 355.834C150.184 355.643 149.805 355.547 149.348 355.547C148.874 355.547 148.479 355.655 148.163 355.872C147.856 356.088 147.623 356.383 147.465 356.757C147.315 357.131 147.241 357.564 147.241 358.054C147.241 358.528 147.315 358.956 147.465 359.339C147.623 359.713 147.864 360.012 148.188 360.237C148.513 360.453 148.924 360.561 149.423 360.561C149.947 360.561 150.371 360.444 150.695 360.212C151.028 359.979 151.227 359.709 151.294 359.401H152.416C152.325 359.858 152.142 360.253 151.867 360.586C151.593 360.918 151.248 361.172 150.832 361.347C150.417 361.521 149.947 361.608 149.423 361.608ZM153.854 361.384V354.724H154.802V357.468H154.752C154.752 356.495 154.964 355.784 155.388 355.335C155.821 354.878 156.465 354.649 157.321 354.649H157.546V355.722H157.122C156.457 355.722 155.945 355.901 155.588 356.258C155.23 356.607 155.051 357.115 155.051 357.78V361.384H153.854ZM161.059 363.878V354.724H162.007V357.605L161.782 357.58C161.824 356.865 161.973 356.283 162.231 355.834C162.497 355.377 162.842 355.04 163.266 354.824C163.69 354.608 164.152 354.5 164.651 354.5C165.133 354.5 165.569 354.591 165.96 354.774C166.359 354.957 166.7 355.206 166.983 355.522C167.265 355.838 167.482 356.204 167.631 356.62C167.781 357.036 167.856 357.476 167.856 357.942V358.166C167.856 358.632 167.777 359.073 167.619 359.488C167.461 359.904 167.236 360.27 166.945 360.586C166.663 360.902 166.322 361.151 165.923 361.334C165.532 361.517 165.1 361.608 164.626 361.608C164.152 361.608 163.699 361.504 163.266 361.297C162.834 361.089 162.476 360.752 162.194 360.286C161.911 359.821 161.749 359.21 161.707 358.453L162.256 359.451V363.878H161.059ZM164.439 360.561C164.888 360.561 165.278 360.457 165.611 360.249C165.944 360.033 166.201 359.738 166.384 359.364C166.567 358.981 166.659 358.545 166.659 358.054C166.659 357.555 166.567 357.119 166.384 356.745C166.201 356.37 165.944 356.079 165.611 355.872C165.278 355.655 164.888 355.547 164.439 355.547C164.04 355.547 163.67 355.639 163.329 355.822C162.988 355.996 162.713 356.254 162.506 356.595C162.306 356.927 162.206 357.331 162.206 357.805V358.378C162.206 358.836 162.31 359.226 162.518 359.551C162.726 359.875 163 360.124 163.341 360.299C163.682 360.474 164.048 360.561 164.439 360.561ZM173.311 361.384V359.389H173.112V357.081C173.112 356.624 172.991 356.279 172.75 356.046C172.517 355.813 172.172 355.697 171.715 355.697C171.457 355.697 171.191 355.701 170.917 355.709C170.643 355.718 170.381 355.726 170.131 355.734C169.882 355.743 169.666 355.755 169.483 355.772V354.724C169.666 354.708 169.857 354.695 170.056 354.687C170.264 354.67 170.476 354.662 170.692 354.662C170.909 354.654 171.116 354.649 171.316 354.649C171.998 354.649 172.555 354.733 172.987 354.899C173.42 355.057 173.74 355.319 173.948 355.684C174.155 356.05 174.259 356.545 174.259 357.169V361.384H173.311ZM171.129 361.559C170.63 361.559 170.198 361.475 169.832 361.309C169.474 361.135 169.196 360.885 168.996 360.561C168.805 360.237 168.71 359.846 168.71 359.389C168.71 358.915 168.813 358.52 169.021 358.204C169.237 357.888 169.549 357.651 169.957 357.493C170.364 357.327 170.855 357.243 171.428 357.243H173.237V358.141H171.378C170.896 358.141 170.526 358.258 170.268 358.491C170.011 358.723 169.882 359.023 169.882 359.389C169.882 359.754 170.011 360.049 170.268 360.274C170.526 360.498 170.896 360.611 171.378 360.611C171.661 360.611 171.931 360.561 172.189 360.461C172.447 360.353 172.659 360.178 172.825 359.937C173 359.688 173.095 359.347 173.112 358.915L173.436 359.389C173.395 359.862 173.278 360.262 173.087 360.586C172.904 360.902 172.646 361.143 172.314 361.309C171.989 361.475 171.595 361.559 171.129 361.559ZM176.083 361.384V354.724H177.03V357.468H176.98C176.98 356.495 177.193 355.784 177.617 355.335C178.049 354.878 178.693 354.649 179.55 354.649H179.774V355.722H179.35C178.685 355.722 178.174 355.901 177.816 356.258C177.459 356.607 177.28 357.115 177.28 357.78V361.384H176.083ZM183.539 361.459C183.041 361.459 182.608 361.388 182.242 361.247C181.885 361.105 181.606 360.864 181.407 360.523C181.216 360.174 181.12 359.704 181.12 359.114V352.704H182.267V359.264C182.267 359.621 182.363 359.9 182.554 360.099C182.754 360.291 183.032 360.386 183.39 360.386H184.562V361.459H183.539ZM179.973 355.622V354.724H184.562V355.622H179.973ZM188.664 361.608C188.082 361.608 187.579 361.509 187.155 361.309C186.731 361.11 186.386 360.848 186.12 360.523C185.853 360.191 185.654 359.821 185.521 359.413C185.396 359.006 185.334 358.59 185.334 358.166V357.942C185.334 357.509 185.396 357.09 185.521 356.682C185.654 356.275 185.853 355.909 186.12 355.585C186.386 355.252 186.722 354.99 187.13 354.799C187.545 354.599 188.032 354.5 188.589 354.5C189.312 354.5 189.907 354.658 190.372 354.974C190.846 355.281 191.195 355.68 191.42 356.171C191.653 356.661 191.769 357.185 191.769 357.742V358.279H185.858V357.381H190.896L190.622 357.867C190.622 357.393 190.547 356.986 190.397 356.645C190.248 356.296 190.023 356.025 189.724 355.834C189.424 355.643 189.046 355.547 188.589 355.547C188.115 355.547 187.72 355.655 187.404 355.872C187.096 356.088 186.864 356.383 186.706 356.757C186.556 357.131 186.481 357.564 186.481 358.054C186.481 358.528 186.556 358.956 186.706 359.339C186.864 359.713 187.105 360.012 187.429 360.237C187.753 360.453 188.165 360.561 188.664 360.561C189.187 360.561 189.612 360.444 189.936 360.212C190.268 359.979 190.468 359.709 190.534 359.401H191.657C191.565 359.858 191.382 360.253 191.108 360.586C190.834 360.918 190.489 361.172 190.073 361.347C189.657 361.521 189.187 361.608 188.664 361.608ZM198.34 361.608C197.866 361.608 197.429 361.521 197.03 361.347C196.631 361.172 196.282 360.927 195.982 360.611C195.691 360.295 195.463 359.929 195.297 359.513C195.139 359.098 195.06 358.649 195.06 358.166V357.942C195.06 357.468 195.139 357.023 195.297 356.607C195.455 356.192 195.675 355.826 195.958 355.51C196.249 355.194 196.589 354.949 196.98 354.774C197.379 354.591 197.82 354.5 198.302 354.5C198.809 354.5 199.271 354.608 199.686 354.824C200.102 355.032 200.443 355.36 200.709 355.809C200.975 356.258 201.125 356.84 201.158 357.555L200.659 356.757V352.28H201.857V361.384H200.909V358.428H201.258C201.225 359.185 201.067 359.8 200.784 360.274C200.501 360.74 200.144 361.08 199.711 361.297C199.287 361.504 198.83 361.608 198.34 361.608ZM198.502 360.561C198.909 360.561 199.279 360.469 199.612 360.286C199.944 360.104 200.21 359.842 200.41 359.501C200.609 359.152 200.709 358.744 200.709 358.279V357.705C200.709 357.248 200.605 356.861 200.397 356.545C200.198 356.221 199.928 355.975 199.587 355.809C199.254 355.635 198.888 355.547 198.489 355.547C198.049 355.547 197.658 355.651 197.317 355.859C196.984 356.067 196.722 356.358 196.531 356.732C196.348 357.106 196.257 357.547 196.257 358.054C196.257 358.561 196.352 359.006 196.544 359.389C196.735 359.763 197.001 360.054 197.342 360.262C197.683 360.461 198.069 360.561 198.502 360.561ZM207.811 361.384V359.389H207.611V357.081C207.611 356.624 207.491 356.279 207.25 356.046C207.017 355.813 206.672 355.697 206.215 355.697C205.957 355.697 205.691 355.701 205.417 355.709C205.142 355.718 204.88 355.726 204.631 355.734C204.381 355.743 204.165 355.755 203.982 355.772V354.724C204.165 354.708 204.356 354.695 204.556 354.687C204.764 354.67 204.976 354.662 205.192 354.662C205.408 354.654 205.616 354.649 205.816 354.649C206.497 354.649 207.054 354.733 207.487 354.899C207.919 355.057 208.239 355.319 208.447 355.684C208.655 356.05 208.759 356.545 208.759 357.169V361.384H207.811ZM205.629 361.559C205.13 361.559 204.697 361.475 204.332 361.309C203.974 361.135 203.695 360.885 203.496 360.561C203.305 360.237 203.209 359.846 203.209 359.389C203.209 358.915 203.313 358.52 203.521 358.204C203.737 357.888 204.049 357.651 204.456 357.493C204.864 357.327 205.354 357.243 205.928 357.243H207.736V358.141H205.878C205.396 358.141 205.026 358.258 204.768 358.491C204.51 358.723 204.381 359.023 204.381 359.389C204.381 359.754 204.51 360.049 204.768 360.274C205.026 360.498 205.396 360.611 205.878 360.611C206.161 360.611 206.431 360.561 206.689 360.461C206.946 360.353 207.158 360.178 207.325 359.937C207.499 359.688 207.595 359.347 207.611 358.915L207.936 359.389C207.894 359.862 207.778 360.262 207.587 360.586C207.404 360.902 207.146 361.143 206.813 361.309C206.489 361.475 206.094 361.559 205.629 361.559ZM213.121 361.384V352.28H214.318V361.384H213.121ZM212.198 353.228V352.28H214.318V353.228H212.198ZM216.564 361.384V354.724H217.762V361.384H216.564ZM215.542 355.672V354.724H217.762V355.672H215.542ZM216.901 353.652C216.635 353.652 216.435 353.581 216.302 353.44C216.178 353.298 216.115 353.12 216.115 352.903C216.115 352.687 216.178 352.508 216.302 352.367C216.435 352.226 216.635 352.155 216.901 352.155C217.167 352.155 217.362 352.226 217.487 352.367C217.62 352.508 217.687 352.687 217.687 352.903C217.687 353.12 217.62 353.298 217.487 353.44C217.362 353.581 217.167 353.652 216.901 353.652ZM221.885 361.583C221.012 361.583 220.334 361.396 219.852 361.022C219.378 360.648 219.133 360.137 219.116 359.488H220.239C220.255 359.746 220.384 359.991 220.625 360.224C220.875 360.449 221.295 360.561 221.885 360.561C222.417 360.561 222.824 360.457 223.107 360.249C223.39 360.033 223.531 359.771 223.531 359.463C223.531 359.189 223.427 358.977 223.219 358.827C223.011 358.669 222.675 358.565 222.209 358.516L221.486 358.441C220.854 358.374 220.338 358.187 219.939 357.879C219.54 357.564 219.341 357.123 219.341 356.557C219.341 356.133 219.449 355.772 219.665 355.472C219.881 355.165 220.18 354.932 220.563 354.774C220.945 354.608 221.386 354.525 221.885 354.525C222.633 354.525 223.24 354.691 223.706 355.024C224.171 355.356 224.412 355.851 224.429 356.508H223.307C223.298 356.242 223.174 356.017 222.932 355.834C222.7 355.643 222.35 355.547 221.885 355.547C221.419 355.547 221.066 355.643 220.825 355.834C220.584 356.025 220.463 356.266 220.463 356.557C220.463 356.807 220.546 357.006 220.713 357.156C220.887 357.306 221.17 357.401 221.561 357.443L222.284 357.518C222.999 357.593 223.573 357.792 224.005 358.116C224.437 358.432 224.654 358.881 224.654 359.463C224.654 359.879 224.533 360.249 224.292 360.573C224.059 360.889 223.735 361.139 223.319 361.322C222.903 361.496 222.425 361.583 221.885 361.583ZM228.609 361.459C228.11 361.459 227.677 361.388 227.312 361.247C226.954 361.105 226.676 360.864 226.476 360.523C226.285 360.174 226.189 359.704 226.189 359.114V352.704H227.337V359.264C227.337 359.621 227.432 359.9 227.623 360.099C227.823 360.291 228.101 360.386 228.459 360.386H229.631V361.459H228.609ZM225.042 355.622V354.724H229.631V355.622H225.042ZM234.954 361.384V359.389H234.755V357.081C234.755 356.624 234.634 356.279 234.393 356.046C234.16 355.813 233.815 355.697 233.358 355.697C233.1 355.697 232.834 355.701 232.56 355.709C232.286 355.718 232.024 355.726 231.774 355.734C231.525 355.743 231.309 355.755 231.126 355.772V354.724C231.309 354.708 231.5 354.695 231.699 354.687C231.907 354.67 232.119 354.662 232.335 354.662C232.552 354.654 232.759 354.649 232.959 354.649C233.641 354.649 234.198 354.733 234.63 354.899C235.063 355.057 235.383 355.319 235.59 355.684C235.798 356.05 235.902 356.545 235.902 357.169V361.384H234.954ZM232.772 361.559C232.273 361.559 231.841 361.475 231.475 361.309C231.117 361.135 230.839 360.885 230.639 360.561C230.448 360.237 230.352 359.846 230.352 359.389C230.352 358.915 230.456 358.52 230.664 358.204C230.88 357.888 231.192 357.651 231.6 357.493C232.007 357.327 232.498 357.243 233.071 357.243H234.88V358.141H233.021C232.539 358.141 232.169 358.258 231.911 358.491C231.654 358.723 231.525 359.023 231.525 359.389C231.525 359.754 231.654 360.049 231.911 360.274C232.169 360.498 232.539 360.611 233.021 360.611C233.304 360.611 233.574 360.561 233.832 360.461C234.09 360.353 234.302 360.178 234.468 359.937C234.643 359.688 234.738 359.347 234.755 358.915L235.079 359.389C235.038 359.862 234.921 360.262 234.73 360.586C234.547 360.902 234.289 361.143 233.957 361.309C233.632 361.475 233.238 361.559 232.772 361.559ZM242.97 361.608C242.496 361.608 242.06 361.521 241.661 361.347C241.262 361.172 240.912 360.927 240.613 360.611C240.322 360.295 240.093 359.929 239.927 359.513C239.769 359.098 239.69 358.649 239.69 358.166V357.942C239.69 357.468 239.769 357.023 239.927 356.607C240.085 356.192 240.306 355.826 240.588 355.51C240.879 355.194 241.22 354.949 241.611 354.774C242.01 354.591 242.451 354.5 242.933 354.5C243.44 354.5 243.901 354.608 244.317 354.824C244.733 355.032 245.074 355.36 245.34 355.809C245.606 356.258 245.756 356.84 245.789 357.555L245.29 356.757V352.28H246.487V361.384H245.539V358.428H245.889C245.855 359.185 245.697 359.8 245.415 360.274C245.132 360.74 244.774 361.08 244.342 361.297C243.918 361.504 243.461 361.608 242.97 361.608ZM243.132 360.561C243.54 360.561 243.91 360.469 244.242 360.286C244.575 360.104 244.841 359.842 245.04 359.501C245.24 359.152 245.34 358.744 245.34 358.279V357.705C245.34 357.248 245.236 356.861 245.028 356.545C244.828 356.221 244.558 355.975 244.217 355.809C243.885 355.635 243.519 355.547 243.12 355.547C242.679 355.547 242.288 355.651 241.948 355.859C241.615 356.067 241.353 356.358 241.162 356.732C240.979 357.106 240.888 357.547 240.888 358.054C240.888 358.561 240.983 359.006 241.174 359.389C241.366 359.763 241.632 360.054 241.973 360.262C242.313 360.461 242.7 360.561 243.132 360.561ZM251.244 361.608C250.662 361.608 250.159 361.509 249.735 361.309C249.311 361.11 248.966 360.848 248.7 360.523C248.434 360.191 248.235 359.821 248.102 359.413C247.977 359.006 247.915 358.59 247.915 358.166V357.942C247.915 357.509 247.977 357.09 248.102 356.682C248.235 356.275 248.434 355.909 248.7 355.585C248.966 355.252 249.303 354.99 249.71 354.799C250.126 354.599 250.613 354.5 251.17 354.5C251.893 354.5 252.487 354.658 252.953 354.974C253.427 355.281 253.776 355.68 254.001 356.171C254.233 356.661 254.35 357.185 254.35 357.742V358.279H248.438V357.381H253.477L253.202 357.867C253.202 357.393 253.128 356.986 252.978 356.645C252.828 356.296 252.604 356.025 252.305 355.834C252.005 355.643 251.627 355.547 251.17 355.547C250.696 355.547 250.301 355.655 249.985 355.872C249.677 356.088 249.444 356.383 249.286 356.757C249.137 357.131 249.062 357.564 249.062 358.054C249.062 358.528 249.137 358.956 249.286 359.339C249.444 359.713 249.686 360.012 250.01 360.237C250.334 360.453 250.746 360.561 251.244 360.561C251.768 360.561 252.192 360.444 252.517 360.212C252.849 359.979 253.049 359.709 253.115 359.401H254.238C254.146 359.858 253.963 360.253 253.689 360.586C253.414 360.918 253.069 361.172 252.654 361.347C252.238 361.521 251.768 361.608 251.244 361.608ZM260.97 361.608C260.388 361.608 259.885 361.509 259.461 361.309C259.037 361.11 258.692 360.848 258.426 360.523C258.16 360.191 257.96 359.821 257.827 359.413C257.703 359.006 257.64 358.59 257.64 358.166V357.942C257.64 357.509 257.703 357.09 257.827 356.682C257.96 356.275 258.16 355.909 258.426 355.585C258.692 355.252 259.029 354.99 259.436 354.799C259.852 354.599 260.338 354.5 260.895 354.5C261.619 354.5 262.213 354.658 262.679 354.974C263.153 355.281 263.502 355.68 263.726 356.171C263.959 356.661 264.076 357.185 264.076 357.742V358.279H258.164V357.381H263.203L262.928 357.867C262.928 357.393 262.853 356.986 262.704 356.645C262.554 356.296 262.33 356.025 262.03 355.834C261.731 355.643 261.353 355.547 260.895 355.547C260.421 355.547 260.027 355.655 259.711 355.872C259.403 356.088 259.17 356.383 259.012 356.757C258.863 357.131 258.788 357.564 258.788 358.054C258.788 358.528 258.863 358.956 259.012 359.339C259.17 359.713 259.411 360.012 259.736 360.237C260.06 360.453 260.471 360.561 260.97 360.561C261.494 360.561 261.918 360.444 262.242 360.212C262.575 359.979 262.774 359.709 262.841 359.401H263.963C263.872 359.858 263.689 360.253 263.415 360.586C263.14 360.918 262.795 361.172 262.379 361.347C261.964 361.521 261.494 361.608 260.97 361.608ZM267.584 361.583C266.711 361.583 266.033 361.396 265.551 361.022C265.077 360.648 264.832 360.137 264.815 359.488H265.938C265.954 359.746 266.083 359.991 266.324 360.224C266.574 360.449 266.994 360.561 267.584 360.561C268.116 360.561 268.523 360.457 268.806 360.249C269.089 360.033 269.23 359.771 269.23 359.463C269.23 359.189 269.126 358.977 268.918 358.827C268.71 358.669 268.374 358.565 267.908 358.516L267.185 358.441C266.553 358.374 266.037 358.187 265.638 357.879C265.239 357.564 265.04 357.123 265.04 356.557C265.04 356.133 265.148 355.772 265.364 355.472C265.58 355.165 265.879 354.932 266.262 354.774C266.644 354.608 267.085 354.525 267.584 354.525C268.332 354.525 268.939 354.691 269.405 355.024C269.87 355.356 270.111 355.851 270.128 356.508H269.006C268.997 356.242 268.873 356.017 268.631 355.834C268.399 355.643 268.049 355.547 267.584 355.547C267.118 355.547 266.765 355.643 266.524 355.834C266.283 356.025 266.162 356.266 266.162 356.557C266.162 356.807 266.245 357.006 266.412 357.156C266.586 357.306 266.869 357.401 267.26 357.443L267.983 357.518C268.698 357.593 269.272 357.792 269.704 358.116C270.136 358.432 270.353 358.881 270.353 359.463C270.353 359.879 270.232 360.249 269.991 360.573C269.758 360.889 269.434 361.139 269.018 361.322C268.602 361.496 268.124 361.583 267.584 361.583ZM271.714 363.878V354.724H272.661V357.605L272.437 357.58C272.478 356.865 272.628 356.283 272.886 355.834C273.152 355.377 273.497 355.04 273.921 354.824C274.345 354.608 274.806 354.5 275.305 354.5C275.788 354.5 276.224 354.591 276.615 354.774C277.014 354.957 277.355 355.206 277.638 355.522C277.92 355.838 278.136 356.204 278.286 356.62C278.436 357.036 278.511 357.476 278.511 357.942V358.166C278.511 358.632 278.432 359.073 278.274 359.488C278.116 359.904 277.891 360.27 277.6 360.586C277.317 360.902 276.977 361.151 276.577 361.334C276.187 361.517 275.754 361.608 275.28 361.608C274.806 361.608 274.353 361.504 273.921 361.297C273.489 361.089 273.131 360.752 272.848 360.286C272.566 359.821 272.404 359.21 272.362 358.453L272.911 359.451V363.878H271.714ZM275.093 360.561C275.542 360.561 275.933 360.457 276.266 360.249C276.598 360.033 276.856 359.738 277.039 359.364C277.222 358.981 277.313 358.545 277.313 358.054C277.313 357.555 277.222 357.119 277.039 356.745C276.856 356.37 276.598 356.079 276.266 355.872C275.933 355.655 275.542 355.547 275.093 355.547C274.694 355.547 274.324 355.639 273.983 355.822C273.642 355.996 273.368 356.254 273.16 356.595C272.961 356.927 272.861 357.331 272.861 357.805V358.378C272.861 358.836 272.965 359.226 273.173 359.551C273.381 359.875 273.655 360.124 273.996 360.299C274.337 360.474 274.703 360.561 275.093 360.561ZM282.769 361.608C282.187 361.608 281.684 361.509 281.26 361.309C280.836 361.11 280.491 360.848 280.225 360.523C279.959 360.191 279.759 359.821 279.626 359.413C279.501 359.006 279.439 358.59 279.439 358.166V357.942C279.439 357.509 279.501 357.09 279.626 356.682C279.759 356.275 279.959 355.909 280.225 355.585C280.491 355.252 280.828 354.99 281.235 354.799C281.651 354.599 282.137 354.5 282.694 354.5C283.417 354.5 284.012 354.658 284.477 354.974C284.951 355.281 285.301 355.68 285.525 356.171C285.758 356.661 285.874 357.185 285.874 357.742V358.279H279.963V357.381H285.001L284.727 357.867C284.727 357.393 284.652 356.986 284.502 356.645C284.353 356.296 284.128 356.025 283.829 355.834C283.53 355.643 283.151 355.547 282.694 355.547C282.22 355.547 281.825 355.655 281.509 355.872C281.202 356.088 280.969 356.383 280.811 356.757C280.661 357.131 280.586 357.564 280.586 358.054C280.586 358.528 280.661 358.956 280.811 359.339C280.969 359.713 281.21 360.012 281.534 360.237C281.858 360.453 282.27 360.561 282.769 360.561C283.293 360.561 283.717 360.444 284.041 360.212C284.374 359.979 284.573 359.709 284.64 359.401H285.762C285.671 359.858 285.488 360.253 285.213 360.586C284.939 360.918 284.594 361.172 284.178 361.347C283.762 361.521 283.293 361.608 282.769 361.608ZM287.2 361.384V354.724H288.148V357.468H288.098C288.098 356.495 288.31 355.784 288.734 355.335C289.166 354.878 289.811 354.649 290.667 354.649H290.892V355.722H290.468C289.802 355.722 289.291 355.901 288.934 356.258C288.576 356.607 288.397 357.115 288.397 357.78V361.384H287.2ZM295.945 361.384V359.389H295.746V357.081C295.746 356.624 295.625 356.279 295.384 356.046C295.151 355.813 294.806 355.697 294.349 355.697C294.091 355.697 293.825 355.701 293.551 355.709C293.276 355.718 293.014 355.726 292.765 355.734C292.515 355.743 292.299 355.755 292.116 355.772V354.724C292.299 354.708 292.49 354.695 292.69 354.687C292.898 354.67 293.11 354.662 293.326 354.662C293.542 354.654 293.75 354.649 293.95 354.649C294.631 354.649 295.188 354.733 295.621 354.899C296.053 355.057 296.373 355.319 296.581 355.684C296.789 356.05 296.893 356.545 296.893 357.169V361.384H295.945ZM293.763 361.559C293.264 361.559 292.831 361.475 292.466 361.309C292.108 361.135 291.83 360.885 291.63 360.561C291.439 360.237 291.343 359.846 291.343 359.389C291.343 358.915 291.447 358.52 291.655 358.204C291.871 357.888 292.183 357.651 292.59 357.493C292.998 357.327 293.488 357.243 294.062 357.243H295.87V358.141H294.012C293.53 358.141 293.16 358.258 292.902 358.491C292.644 358.723 292.515 359.023 292.515 359.389C292.515 359.754 292.644 360.049 292.902 360.274C293.16 360.498 293.53 360.611 294.012 360.611C294.295 360.611 294.565 360.561 294.823 360.461C295.08 360.353 295.292 360.178 295.459 359.937C295.633 359.688 295.729 359.347 295.746 358.915L296.07 359.389C296.028 359.862 295.912 360.262 295.721 360.586C295.538 360.902 295.28 361.143 294.947 361.309C294.623 361.475 294.228 361.559 293.763 361.559Z" fill="#F67ACB"/>
<path d="M114.998 420.768L108.124 427.642L104 423.518" stroke="#F67ACB" stroke-width="1.5" stroke-linecap="round" stroke-linejoin="round"/>
<rect x="130.998" y="423.205" width="70" height="2" fill="white"/>
<path d="M114.998 459.642L108.124 466.516L104 462.392" stroke="#F67ACB" stroke-width="1.5" stroke-linecap="round" stroke-linejoin="round"/>
<rect x="130.998" y="462.079" width="70" height="2" fill="white"/>
<path d="M114.998 498.516L108.124 505.39L104 501.266" stroke="#F67ACB" stroke-width="1.5" stroke-linecap="round" stroke-linejoin="round"/>
<rect x="130.998" y="500.953" width="70" height="2" fill="white"/>
<path d="M342.34 363.485C342.134 363.422 341.921 363.353 341.701 363.278C341.494 363.201 341.29 363.078 341.088 362.908C340.901 362.749 340.728 362.516 340.568 362.208C340.403 361.834 340.279 361.463 340.194 361.096C340.123 360.727 340.074 360.296 340.046 359.803C339.989 359.112 339.985 358.511 340.036 357.998C340.099 357.471 340.215 356.933 340.383 356.384C340.407 356.341 340.444 356.225 340.495 356.033C340.558 355.827 340.626 355.607 340.701 355.374C340.788 355.139 340.853 354.96 340.896 354.836C340.984 354.601 341.118 354.289 341.3 353.899C341.494 353.495 341.702 353.103 341.924 352.723C342.262 352.119 342.543 351.641 342.768 351.288C342.993 350.934 343.209 350.635 343.416 350.391C343.623 350.146 343.858 349.912 344.12 349.69C344.395 349.453 344.745 349.163 345.171 348.819C345.446 348.582 345.755 348.443 346.1 348.401C346.457 348.358 346.796 348.41 347.116 348.557C347.435 348.691 347.681 348.911 347.854 349.218C348.023 349.485 348.124 349.817 348.158 350.216C348.19 350.601 348.164 351.018 348.081 351.467C347.997 351.902 347.865 352.321 347.684 352.724C347.504 353.127 347.285 353.467 347.027 353.742C346.867 353.916 346.713 353.989 346.563 353.962C346.427 353.933 346.259 353.84 346.059 353.683C345.92 353.467 345.843 353.339 345.826 353.301C345.823 353.261 345.847 353.232 345.899 353.214C345.971 353.114 346.064 352.946 346.178 352.709C346.292 352.472 346.405 352.222 346.517 351.958C346.628 351.682 346.703 351.461 346.743 351.297C346.802 350.73 346.843 350.332 346.864 350.103C346.884 349.861 346.829 349.685 346.699 349.575C346.642 349.526 346.56 349.513 346.455 349.535C346.363 349.556 346.209 349.636 345.993 349.774C345.699 349.933 345.325 350.265 344.872 350.771C344.418 351.264 344.009 351.806 343.643 352.399C343.171 353.147 342.778 353.809 342.464 354.384C342.151 354.958 341.925 355.539 341.787 356.126C341.765 356.181 341.726 356.285 341.672 356.437C341.631 356.587 341.611 356.662 341.611 356.662C341.629 356.715 341.62 356.849 341.584 357.066C341.548 357.27 341.502 357.448 341.448 357.599C341.353 358.223 341.32 358.868 341.349 359.534C341.376 360.188 341.458 360.763 341.593 361.26C341.741 361.756 341.923 362.095 342.139 362.278C342.322 362.383 342.558 362.404 342.847 362.339C343.149 362.274 343.487 362.152 343.86 361.974C344.233 361.796 344.612 361.603 344.996 361.398C345.304 361.238 345.584 361.068 345.836 360.886C346.089 360.704 346.277 360.548 346.399 360.417C346.499 360.329 346.625 360.238 346.778 360.145C346.943 360.038 347.085 359.979 347.205 359.969C347.385 359.887 347.49 359.852 347.517 359.863C347.545 359.874 347.563 359.932 347.572 360.039C347.588 360.225 347.498 360.44 347.305 360.683C347.124 360.926 346.882 361.153 346.579 361.366C346.481 361.481 346.351 361.606 346.189 361.74C346.026 361.874 345.854 361.982 345.674 362.063C345.412 362.299 345.084 362.534 344.689 362.768C344.294 363.001 343.888 363.189 343.471 363.331C343.068 363.472 342.691 363.523 342.34 363.485ZM352.794 362.032C352.745 362.089 352.687 362.114 352.62 362.106C352.553 362.112 352.444 362.088 352.292 362.033C352.034 361.988 351.867 361.902 351.789 361.774C351.726 361.659 351.749 361.45 351.857 361.146C351.903 361.049 351.952 360.844 352.007 360.532C352.073 360.205 352.142 359.832 352.214 359.411C352.286 358.99 352.358 358.569 352.43 358.148C352.502 357.728 352.565 357.361 352.619 357.049C352.672 356.723 352.708 356.506 352.726 356.398C352.717 356.292 352.726 356.077 352.752 355.753C352.792 355.429 352.822 355.065 352.842 354.662C352.965 354.371 353.039 354.057 353.064 353.72C353.103 353.383 353.129 353.14 353.144 352.991C353.179 352.774 353.22 352.543 353.267 352.299C353.327 352.053 353.373 351.808 353.406 351.565C353.442 351.347 353.476 351.124 353.511 350.894C353.558 350.662 353.579 350.513 353.574 350.447L353.547 350.128L352.81 350.189C352.612 350.219 352.319 350.244 351.933 350.262C351.546 350.281 351.2 350.303 350.895 350.329C350.268 350.354 349.845 350.33 349.624 350.254C349.416 350.165 349.286 349.975 349.236 349.685C349.196 349.527 349.219 349.412 349.307 349.338C349.394 349.263 349.61 349.205 349.955 349.163C350.299 349.121 350.831 349.083 351.551 349.05C352.107 348.977 352.592 348.936 353.006 348.929C353.419 348.908 353.652 348.895 353.705 348.89C353.754 348.833 353.782 348.777 353.791 348.723C353.8 348.668 353.816 348.614 353.838 348.558C353.832 348.492 353.833 348.418 353.839 348.337C353.858 348.242 353.919 348.17 354.022 348.121C354.112 347.913 354.225 347.824 354.361 347.852C354.509 347.867 354.665 347.974 354.829 348.175C354.892 348.29 354.95 348.412 355 348.542C355.065 348.67 355.148 348.783 355.25 348.882C355.298 348.824 355.435 348.78 355.66 348.747C355.885 348.715 356.123 348.682 356.374 348.648C356.68 348.622 356.951 348.593 357.19 348.56C357.427 348.513 357.591 348.486 357.684 348.478C357.799 348.402 357.949 348.356 358.135 348.34C358.334 348.324 358.534 348.32 358.736 348.33C359.041 348.305 359.255 348.3 359.377 348.317C359.512 348.333 359.602 348.372 359.648 348.435C359.652 348.488 359.657 348.541 359.661 348.594C359.679 348.646 359.716 348.697 359.774 348.746C359.832 348.794 359.861 348.832 359.864 348.858C359.865 348.872 359.843 348.934 359.799 349.045C359.75 349.102 359.661 349.156 359.531 349.207C359.401 349.245 359.256 349.27 359.096 349.284C359.003 349.291 358.845 349.318 358.621 349.363C358.397 349.396 358.204 349.418 358.045 349.432C357.744 349.51 357.402 349.586 357.02 349.658C356.65 349.715 356.234 349.777 355.771 349.842C355.572 349.859 355.387 349.887 355.216 349.928C355.045 349.956 354.962 350.003 354.967 350.07C354.914 350.074 354.853 350.22 354.783 350.506C354.727 350.792 354.671 351.091 354.617 351.403C354.566 351.755 354.505 352.062 354.433 352.322C354.374 352.581 354.321 352.753 354.275 352.837C354.333 352.885 354.358 352.95 354.351 353.031C354.358 353.111 354.33 353.254 354.267 353.46C354.229 353.65 354.188 353.801 354.144 353.911C354.113 354.021 354.102 354.129 354.111 354.235C354.111 354.235 354.086 354.344 354.038 354.562C354.001 354.766 353.969 355.023 353.941 355.333C353.939 355.628 353.92 355.877 353.883 356.081C353.86 356.283 353.824 356.413 353.775 356.471C353.775 356.471 353.753 356.52 353.707 356.617C353.661 356.701 353.642 356.796 353.651 356.903C353.661 357.022 353.651 357.224 353.621 357.507C353.603 357.776 353.578 358.033 353.544 358.276C353.511 358.52 353.476 358.657 353.438 358.687C353.573 358.702 353.568 358.883 353.423 359.23C353.434 359.362 353.426 359.497 353.397 359.633C353.368 359.769 353.356 359.864 353.36 359.917C353.302 360.176 353.232 360.463 353.151 360.778C353.07 361.092 352.999 361.366 352.938 361.598C352.879 361.844 352.831 361.988 352.794 362.032ZM356.754 361.822C356.504 361.709 356.359 361.574 356.319 361.417C356.293 361.258 356.362 360.971 356.528 360.556C356.694 360.141 356.955 359.497 357.311 358.624C357.58 358 357.78 357.515 357.912 357.169C358.056 356.81 358.148 356.554 358.189 356.404C358.243 356.252 358.269 356.156 358.265 356.116C358.229 355.999 358.234 355.905 358.282 355.834C358.328 355.75 358.409 355.676 358.524 355.613C358.585 355.541 358.682 355.413 358.813 355.228C358.958 355.042 359.087 354.824 359.2 354.573C359.297 354.284 359.412 353.987 359.547 353.681C359.683 353.376 359.865 352.993 360.094 352.532C360.322 352.058 360.619 351.445 360.984 350.692C361.211 350.205 361.464 349.708 361.743 349.203C362.021 348.685 362.319 348.172 362.638 347.664C362.769 347.466 362.889 347.308 363 347.192C363.11 347.062 363.225 346.999 363.346 347.003C363.505 346.989 363.689 347.028 363.897 347.117C364.118 347.206 364.323 347.329 364.51 347.488C364.697 347.646 364.839 347.821 364.935 348.014C365.01 348.115 365.056 348.339 365.071 348.685C365.087 349.032 365.095 349.452 365.096 349.947C365.097 350.442 365.095 350.971 365.088 351.534C365.094 352.082 365.088 352.731 365.07 353.482C365.052 354.233 365.037 355.016 365.025 355.834C365.026 356.65 365.039 357.438 365.062 358.199C365.084 358.946 365.138 359.597 365.225 360.152C365.248 360.27 365.258 360.383 365.253 360.491C365.249 360.598 365.249 360.685 365.255 360.752C365.182 360.838 365.052 360.882 364.864 360.884C364.692 360.899 364.516 360.873 364.336 360.808C364.17 360.742 364.069 360.65 364.032 360.532C363.989 360.496 363.958 360.445 363.939 360.38C363.933 360.3 363.926 360.14 363.919 359.9C363.913 359.659 363.894 359.28 363.864 358.76L363.695 355.523L363.437 355.565C363.318 355.575 363.093 355.607 362.763 355.661C362.433 355.715 362.078 355.785 361.697 355.87C361.315 355.942 360.96 356.019 360.632 356.1C360.317 356.166 360.101 356.224 359.984 356.274C359.865 356.284 359.725 356.376 359.566 356.55C359.42 356.723 359.284 356.941 359.159 357.206C359.121 357.396 359.038 357.604 358.91 357.829C358.794 358.039 358.738 358.178 358.744 358.244C358.656 358.318 358.583 358.405 358.525 358.503C358.479 358.601 358.457 358.649 358.457 358.649C358.463 358.729 358.413 358.934 358.307 359.264C358.213 359.579 358.089 359.938 357.935 360.338C357.78 360.726 357.621 361.067 357.459 361.362L357.093 362.034L356.754 361.822ZM360.345 355.06C360.345 355.06 360.41 355.041 360.541 355.003C360.685 354.965 360.849 354.924 361.032 354.882C361.228 354.826 361.406 354.791 361.566 354.778C362.112 354.598 362.511 354.478 362.76 354.417C363.008 354.343 363.178 354.302 363.271 354.294C363.378 354.285 363.472 354.297 363.555 354.331C363.614 354.393 363.664 354.429 363.705 354.439C363.759 354.447 363.786 354.452 363.786 354.452C363.797 354.424 363.804 354.27 363.808 353.988C363.811 353.707 363.815 353.359 363.821 352.944C363.84 352.527 363.851 352.098 363.854 351.657C363.87 351.2 363.875 350.785 363.871 350.411C363.865 350.023 363.861 349.729 363.857 349.529C363.849 349.275 363.844 349.048 363.841 348.848C363.836 348.634 363.834 348.527 363.834 348.527C363.754 348.534 363.594 348.695 363.352 349.009C363.124 349.322 362.871 349.732 362.592 350.237C362.313 350.741 362.056 351.278 361.823 351.846C361.711 352.11 361.604 352.346 361.501 352.555C361.398 352.765 361.313 352.872 361.246 352.877C361.222 352.906 361.152 353.032 361.037 353.256C360.934 353.465 360.821 353.709 360.697 353.987C360.572 354.252 360.472 354.494 360.396 354.714C360.32 354.922 360.303 355.037 360.345 355.06Z" fill="#F67ACB"/>
</g>
<path d="M-1 95.1786C-1 77.4068 13.4068 63 31.1786 63H1073.82C1091.59 63 1106 77.4068 1106 95.1786H1104C1104 78.5114 1090.49 65 1073.82 65H31.1786C14.5114 65 1 78.5114 1 95.1786H-1ZM1105 593H0H1105ZM-1 593V95.1786C-1 77.4068 13.4068 63 31.1786 63V65C14.5114 65 1 78.5114 1 95.1786V593H-1ZM1073.82 63C1091.59 63 1106 77.4068 1106 95.1786V593H1104V95.1786C1104 78.5114 1090.49 65 1073.82 65V63Z" fill="white" mask="url(#path-1-inside-1_69_918)"/>
<g clip-path="url(#clip3_69_918)">
<mask id="path-31-inside-2_69_918" fill="white">
<path d="M841 40C841 17.9086 858.909 0 881 0H1176C1198.09 0 1216 17.9086 1216 40V610C1216 632.091 1198.09 650 1176 650H881C858.909 650 841 632.091 841 610V40Z"/>
</mask>
<path d="M841 40C841 17.9086 858.909 0 881 0H1176C1198.09 0 1216 17.9086 1216 40V610C1216 632.091 1198.09 650 1176 650H881C858.909 650 841 632.091 841 610V40Z" fill="url(#paint1_linear_69_918)"/>
<rect width="375" height="88" transform="translate(841)" fill="url(#paint2_linear_69_918)"/>
<path d="M1171 44.0001H1189" stroke="white" stroke-width="1.99832" stroke-linecap="round" stroke-linejoin="round"/>
<path d="M1171 38.0001H1189" stroke="white" stroke-width="1.99832" stroke-linecap="round" stroke-linejoin="round"/>
<path d="M1171 50.0001H1189" stroke="white" stroke-width="1.99832" stroke-linecap="round" stroke-linejoin="round"/>
<rect width="375" height="261" transform="translate(841 505)" fill="url(#paint3_linear_69_918)"/>
<rect x="865.5" y="513.5" width="326" height="244" rx="11.5" stroke="white"/>
<circle cx="901" cy="124" r="35.6604" stroke="#343434" stroke-width="0.679245"/>
<g clip-path="url(#clip4_69_918)">
<path d="M904.139 115.302L898.719 122.592L902.837 128.119L900.526 129.882L893.99 121.15L885.302 132.793H917.184L904.139 115.302Z" fill="#F67ACB"/>
</g>
<circle cx="986" cy="124" r="35.6604" stroke="#343434" stroke-width="0.679245"/>
<g clip-path="url(#clip5_69_918)">
<path d="M989.139 115.302L983.719 122.592L987.837 128.119L985.526 129.882L978.99 121.15L970.302 132.793H1002.18L989.139 115.302Z" fill="#F67ACB"/>
</g>
<circle cx="1071" cy="124" r="35.6604" stroke="#343434" stroke-width="0.679245"/>
<g clip-path="url(#clip6_69_918)">
<path d="M1074.14 115.302L1068.72 122.592L1072.84 128.119L1070.53 129.882L1063.99 121.15L1055.3 132.793H1087.18L1074.14 115.302Z" fill="#F67ACB"/>
</g>
<circle cx="1156" cy="124" r="35.6604" stroke="#343434" stroke-width="0.679245"/>
<g clip-path="url(#clip7_69_918)">
<path d="M1159.14 115.302L1153.72 122.592L1157.84 128.119L1155.53 129.882L1148.99 121.15L1140.3 132.793H1172.18L1159.14 115.302Z" fill="#F67ACB"/>
</g>
<rect width="375" height="261" transform="translate(841 176)" fill="url(#paint4_linear_69_918)"/>
<rect x="865.5" y="184.5" width="326" height="244" rx="11.5" stroke="white"/>
<rect x="865" y="376" width="327" height="1" rx="0.5" fill="black"/>
<path d="M898.367 396.842C897.941 396.416 897.436 396.078 896.879 395.848C896.323 395.617 895.727 395.499 895.125 395.499C894.523 395.499 893.927 395.617 893.37 395.848C892.814 396.078 892.309 396.416 891.883 396.842L891 397.725L890.117 396.842C889.257 395.982 888.091 395.499 886.875 395.499C885.659 395.499 884.493 395.982 883.633 396.842C882.774 397.702 882.291 398.868 882.291 400.083C882.291 401.299 882.774 402.465 883.633 403.325L884.517 404.208L891 410.692L897.483 404.208L898.367 403.325C898.792 402.899 899.13 402.394 899.361 401.838C899.591 401.282 899.71 400.686 899.71 400.083C899.71 399.481 899.591 398.885 899.361 398.329C899.13 397.773 898.792 397.267 898.367 396.842V396.842Z" stroke="white" stroke-width="1.5" stroke-linecap="round" stroke-linejoin="round"/>
<path d="M934.5 405.5C934.5 405.942 934.324 406.366 934.012 406.679C933.699 406.991 933.275 407.167 932.833 407.167H922.833L919.5 410.5V397.167C919.5 396.725 919.676 396.301 919.988 395.988C920.301 395.676 920.725 395.5 921.167 395.5H932.833C933.275 395.5 933.699 395.676 934.012 395.988C934.324 396.301 934.5 396.725 934.5 397.167V405.5Z" stroke="white" stroke-width="1.5" stroke-linecap="round" stroke-linejoin="round"/>
<path d="M1171.83 410.5L1166 406.333L1160.17 410.5V397.167C1160.17 396.725 1160.34 396.301 1160.65 395.988C1160.97 395.676 1161.39 395.5 1161.83 395.5H1170.17C1170.61 395.5 1171.03 395.676 1171.35 395.988C1171.66 396.301 1171.83 396.725 1171.83 397.167V410.5Z" stroke="white" stroke-width="1.5" stroke-linecap="round" stroke-linejoin="round"/>
<rect width="375" height="68" transform="translate(841 437)" fill="url(#paint5_linear_69_918)"/>
<rect x="865" y="461" width="208" height="2" fill="white"/>
<rect x="865" y="479" width="122" height="2" fill="white"/>
<path d="M901.927 53.2705C898.263 53.2705 895.796 50.9275 895.796 48.0112H898.812C898.837 49.3572 900.108 50.5785 902.002 50.5785C903.747 50.5785 904.869 49.5067 904.869 48.1608C904.869 46.9643 903.847 46.2664 902.401 45.8676L900.257 45.2694C896.568 44.3222 895.92 42.1038 895.92 40.6083C895.92 37.5673 898.587 35.4985 901.753 35.4985C904.894 35.4985 907.361 37.4427 907.361 40.6581H904.345C904.345 39.2374 903.273 38.2154 901.678 38.2154C900.208 38.2154 898.986 39.2124 898.986 40.5584C898.986 41.032 899.136 42.029 901.105 42.5525L903.149 43.1507C905.841 43.8985 907.91 45.2943 907.91 48.0361C907.91 51.1768 905.292 53.2705 901.927 53.2705Z" fill="white"/>
<path d="M913.676 41.3311H916.144V43.6243H913.676V52.9714H910.785V43.6243H908.691V41.3311H910.785V37.0439H913.676V41.3311Z" fill="white"/>
<path d="M923.839 41.032C924.537 41.032 925.284 41.1816 925.733 41.4308L925.16 44.1726C924.487 43.8237 923.888 43.7489 923.465 43.7489C921.57 43.7489 920.523 45.6433 920.523 48.9085V52.9714H917.607V41.3311H920.499V43.8237C921.122 41.8795 922.393 41.032 923.839 41.032Z" fill="white"/>
<path d="M935.038 47.5625V41.3311H937.93V52.9714H935.038V51.1518C934.44 52.6224 932.596 53.2705 931.424 53.2705C928.433 53.2705 926.763 51.2515 926.763 47.8616V41.3311H929.654V47.737C929.654 49.6064 930.776 50.5785 932.072 50.5785C933.393 50.5785 935.038 49.8308 935.038 47.5625Z" fill="white"/>
<path d="M946.207 53.2705C942.842 53.2705 939.876 50.8278 939.876 47.1388C939.876 43.4498 942.842 41.032 946.207 41.032C948.226 41.032 949.871 41.9293 950.943 43.2753L948.899 44.8955C948.301 44.1726 947.304 43.724 946.257 43.724C944.238 43.724 942.792 45.1697 942.792 47.1388C942.792 49.083 944.238 50.5785 946.257 50.5785C947.304 50.5785 948.301 50.1299 948.899 49.407L950.943 51.0272C949.871 52.3732 948.226 53.2705 946.207 53.2705Z" fill="white"/>
<path d="M956.618 41.3311H959.085V43.6243H956.618V52.9714H953.726V43.6243H951.632V41.3311H953.726V37.0439H956.618V41.3311Z" fill="white"/>
<path d="M967.054 41.032C970.319 41.032 972.961 43.5994 972.961 47.1388C972.961 50.6782 970.319 53.2705 967.054 53.2705C965.11 53.2705 963.265 52.2735 962.418 50.6782V52.9714H960.823V35H962.418V43.5994C963.29 42.0041 965.085 41.032 967.054 41.032ZM966.929 51.75C969.397 51.75 971.391 49.7061 971.391 47.1139C971.391 44.5465 969.397 42.5525 966.929 42.5525C964.611 42.5525 962.418 44.3721 962.418 47.1887C962.418 49.8806 964.512 51.75 966.929 51.75Z" fill="white"/>
<path d="M980.694 53.2705C977.379 53.2705 974.612 50.8278 974.612 47.1388C974.612 43.4498 977.379 41.032 980.694 41.032C984.009 41.032 986.801 43.4498 986.801 47.1388C986.801 50.8278 984.009 53.2705 980.694 53.2705ZM980.694 51.75C983.137 51.75 985.206 49.8806 985.206 47.1388C985.206 44.397 983.137 42.5525 980.694 42.5525C978.227 42.5525 976.208 44.397 976.208 47.1388C976.208 49.8806 978.227 51.75 980.694 51.75Z" fill="white"/>
<path d="M994.503 53.2705C991.188 53.2705 988.421 50.8278 988.421 47.1388C988.421 43.4498 991.188 41.032 994.503 41.032C997.818 41.032 1000.61 43.4498 1000.61 47.1388C1000.61 50.8278 997.818 53.2705 994.503 53.2705ZM994.503 51.75C996.945 51.75 999.014 49.8806 999.014 47.1388C999.014 44.397 996.945 42.5525 994.503 42.5525C992.035 42.5525 990.016 44.397 990.016 47.1388C990.016 49.8806 992.035 51.75 994.503 51.75Z" fill="white"/>
<path d="M1006.32 53.2705C1004.3 53.2705 1002.28 52.099 1002.08 49.8806H1003.55C1003.72 50.8527 1004.62 51.8498 1006.32 51.8498C1007.99 51.8498 1009.01 50.9774 1009.01 49.8058C1009.01 48.8587 1008.36 48.2355 1007.16 47.9364L1005.49 47.5376C1003.85 47.1388 1002.53 46.2913 1002.53 44.3471C1002.53 42.4528 1004.15 41.032 1006.37 41.032C1008.31 41.032 1010.11 42.1038 1010.18 44.1976H1008.64C1008.56 43.1507 1007.54 42.4528 1006.39 42.4528C1005.05 42.4528 1004.12 43.2753 1004.12 44.3721C1004.12 45.4688 1005.07 45.9424 1005.92 46.1418L1007.64 46.5655C1009.91 47.1139 1010.6 48.4848 1010.6 49.8308C1010.6 51.8996 1008.73 53.2705 1006.32 53.2705Z" fill="white"/>
<path d="M1015.33 41.3311H1018V42.702H1015.33V52.9714H1013.76V42.702H1011.64V41.3311H1013.76V36.9691H1015.33V41.3311Z" fill="white"/>
<path d="M885.222 36.2186H874.533C874.097 36.2186 874.004 36.25 873.754 36.5014L865.28 44.418C865.031 44.6693 865 44.7636 865 45.2034V49.8533C865 52.4917 866.309 53.8112 868.926 53.8112H879.614C880.05 53.8112 880.143 53.7798 880.392 53.5285L888.867 45.6119C889.116 45.3605 889.147 45.2663 889.147 44.8264V40.1773C889.147 37.5382 887.839 36.2186 885.222 36.2186Z" fill="#F67ACB"/>
<g clip-path="url(#clip8_69_918)">
<path d="M1036.03 268.374L1022.6 286.429L1032.8 300.118L1027.08 304.483L1010.89 282.857L989.374 311.692H1068.33L1036.03 268.374Z" fill="#F67ACB"/>
</g>
</g>
<path d="M840 40C840 17.3563 858.356 -1 881 -1H1176C1198.64 -1 1217 17.3563 1217 40H1215C1215 18.4609 1197.54 1 1176 1H881C859.461 1 842 18.4609 842 40H840ZM1216 650H841H1216ZM881 650C858.356 650 840 631.644 840 609V40C840 17.3563 858.356 -1 881 -1V1C859.461 1 842 18.4609 842 40V610C842 632.091 859.461 650 881 650ZM1176 -1C1198.64 -1 1217 17.3563 1217 40V609C1217 631.644 1198.64 650 1176 650C1197.54 650 1215 632.091 1215 610V40C1215 18.4609 1197.54 1 1176 1V-1Z" fill="white" mask="url(#path-31-inside-2_69_918)"/>
</g>
<defs>
<linearGradient id="paint0_linear_69_918" x1="-143.497" y1="-121.423" x2="1285.37" y2="-162.736" gradientUnits="userSpaceOnUse">
<stop stop-color="#000205"/>
<stop offset="1" stop-color="#000205"/>
</linearGradient>
<linearGradient id="paint1_linear_69_918" x1="792.302" y1="-227.836" x2="1277.59" y2="-231.711" gradientUnits="userSpaceOnUse">
<stop stop-color="#000205"/>
<stop offset="1" stop-color="#000205"/>
</linearGradient>
<linearGradient id="paint2_linear_69_918" x1="-48.6979" y1="-30.8455" x2="434.934" y2="-59.3718" gradientUnits="userSpaceOnUse">
<stop stop-color="#050003"/>
<stop offset="1" stop-color="#060004"/>
</linearGradient>
<linearGradient id="paint3_linear_69_918" x1="-48.6979" y1="-91.4849" x2="436.425" y2="-101.133" gradientUnits="userSpaceOnUse">
<stop stop-color="#000205"/>
<stop offset="1" stop-color="#000205"/>
</linearGradient>
<linearGradient id="paint4_linear_69_918" x1="-48.6979" y1="-91.4849" x2="436.425" y2="-101.133" gradientUnits="userSpaceOnUse">
<stop stop-color="#000205"/>
<stop offset="1" stop-color="#000205"/>
</linearGradient>
<linearGradient id="paint5_linear_69_918" x1="-48.6979" y1="-23.8351" x2="433.805" y2="-60.6653" gradientUnits="userSpaceOnUse">
<stop stop-color="#000205"/>
<stop offset="1" stop-color="#000205"/>
</linearGradient>
<clipPath id="clip0_69_918">
<rect width="1216" height="593" fill="white"/>
</clipPath>
<clipPath id="clip1_69_918">
<path d="M0 95.1786C0 77.9591 13.9591 64 31.1786 64H1073.82C1091.04 64 1105 77.9591 1105 95.1786V593H0V95.1786Z" fill="white"/>
</clipPath>
<clipPath id="clip2_69_918">
<rect width="161" height="88" fill="white" transform="translate(735 327)"/>
</clipPath>
<clipPath id="clip3_69_918">
<path d="M841 40C841 17.9086 858.909 0 881 0H1176C1198.09 0 1216 17.9086 1216 40V610C1216 632.091 1198.09 650 1176 650H881C858.909 650 841 632.091 841 610V40Z" fill="white"/>
</clipPath>
<clipPath id="clip4_69_918">
<rect width="32" height="17.4907" fill="white" transform="translate(885.302 115.302)"/>
</clipPath>
<clipPath id="clip5_69_918">
<rect width="32" height="17.4907" fill="white" transform="translate(970.302 115.302)"/>
</clipPath>
<clipPath id="clip6_69_918">
<rect width="32" height="17.4907" fill="white" transform="translate(1055.3 115.302)"/>
</clipPath>
<clipPath id="clip7_69_918">
<rect width="32" height="17.4907" fill="white" transform="translate(1140.3 115.302)"/>
</clipPath>
<clipPath id="clip8_69_918">
<rect width="79.2523" height="43.318" fill="white" transform="translate(989.374 268.374)"/>
</clipPath>
</defs>
</svg>
